<?xml version="1.0" encoding="UTF-8"?>
<svg xmlns="http://www.w3.org/2000/svg" xmlns:xlink="http://www.w3.org/1999/xlink" width="50px" height="50px" viewBox="0 0 50 49" version="1.1">
<defs>
<clipPath id="clip1">
  <path d="M 0.0117188 0 L 49.964844 0 L 49.964844 48.980469 L 0.0117188 48.980469 Z M 0.0117188 0 "/>
</clipPath>
<clipPath id="clip2">
  <path d="M 9.460938 19.527344 L 40.519531 19.527344 L 40.519531 24.878906 L 9.460938 24.878906 Z M 9.460938 19.527344 "/>
</clipPath>
<clipPath id="clip3">
  <path d="M 19.695312 26.144531 L 30.285156 26.144531 L 30.285156 29.449219 L 19.695312 29.449219 Z M 19.695312 26.144531 "/>
</clipPath>
</defs>
<g id="surface1">
<g clip-path="url(#clip1)" clip-rule="nonzero">
<path style="fill-rule:nonzero;fill:rgb(92.54902%,56.862745%,19.215686%);fill-opacity:1;stroke-width:1;stroke-linecap:butt;stroke-linejoin:miter;stroke:rgb(100%,100%,100%);stroke-opacity:1;stroke-miterlimit:4;" d="M -0.00532504 171.417969 C -0.00532504 76.753906 76.752507 0.000000000000003096 171.419606 0.000000000000003096 C 266.113516 0.000000000000003096 342.844537 76.753906 342.844537 171.417969 C 342.844537 266.109375 266.113516 342.863281 171.419606 342.863281 C 76.752507 342.863281 -0.00532504 266.109375 -0.00532504 171.417969 Z M 171.419606 339.472656 C 264.236796 339.472656 339.466442 264.222656 339.466442 171.417969 C 339.466442 78.613281 264.236796 3.390625 171.419606 3.390625 C 78.629227 3.390625 3.37277 78.613281 3.37277 171.417969 C 3.37277 264.222656 78.629227 339.472656 171.419606 339.472656 Z M 171.419606 339.472656 " transform="matrix(0.1457,0,0,0.142857,0.0124946,-0.000000000000000442)"/>
</g>
<path style=" stroke:none;fill-rule:nonzero;fill:rgb(92.54902%,56.862745%,19.215686%);fill-opacity:1;" d="M 48.96875 24.488281 C 48.96875 11.503906 38.230469 0.980469 24.988281 0.980469 C 11.746094 0.980469 1.011719 11.503906 1.011719 24.488281 C 1.011719 37.472656 11.746094 48 24.988281 48 C 38.230469 48 48.96875 37.472656 48.96875 24.488281 Z M 48.96875 24.488281 "/>
<g clip-path="url(#clip2)" clip-rule="nonzero">
<path style=" stroke:none;fill-rule:nonzero;fill:rgb(100%,100%,100%);fill-opacity:1;" d="M 12.042969 23.496094 C 12.074219 23.535156 12.09375 23.566406 12.097656 23.59375 C 12.105469 23.617188 12.113281 23.640625 12.125 23.667969 C 12.132812 23.691406 12.140625 23.714844 12.148438 23.738281 C 12.15625 23.757812 12.15625 23.773438 12.15625 23.777344 C 12.15625 23.808594 12.152344 23.832031 12.140625 23.855469 C 12.128906 23.875 12.113281 23.898438 12.089844 23.929688 C 11.90625 24 11.726562 24.066406 11.546875 24.128906 C 11.371094 24.195312 11.1875 24.257812 11 24.320312 C 10.949219 24.335938 10.902344 24.347656 10.863281 24.363281 C 10.820312 24.378906 10.773438 24.394531 10.722656 24.402344 C 10.714844 24.410156 10.703125 24.417969 10.679688 24.425781 C 10.660156 24.433594 10.636719 24.441406 10.609375 24.449219 C 10.582031 24.457031 10.554688 24.464844 10.527344 24.472656 C 10.503906 24.480469 10.488281 24.484375 10.480469 24.484375 C 10.441406 24.492188 10.402344 24.496094 10.359375 24.492188 C 10.316406 24.492188 10.273438 24.492188 10.230469 24.496094 C 10.207031 24.5 10.191406 24.511719 10.183594 24.53125 C 10.175781 24.546875 10.164062 24.566406 10.152344 24.585938 C 10.140625 24.605469 10.125 24.625 10.101562 24.640625 C 10.078125 24.65625 10.046875 24.664062 10.003906 24.664062 C 9.964844 24.664062 9.921875 24.664062 9.882812 24.660156 C 9.839844 24.652344 9.796875 24.640625 9.75 24.625 C 9.742188 24.609375 9.738281 24.59375 9.742188 24.574219 C 9.742188 24.554688 9.738281 24.535156 9.730469 24.523438 C 9.6875 24.519531 9.65625 24.523438 9.632812 24.53125 C 9.613281 24.542969 9.589844 24.554688 9.566406 24.558594 C 9.550781 24.539062 9.542969 24.519531 9.535156 24.492188 C 9.527344 24.46875 9.515625 24.445312 9.496094 24.429688 C 9.492188 24.40625 9.488281 24.382812 9.488281 24.363281 C 9.488281 24.339844 9.488281 24.316406 9.488281 24.292969 C 9.488281 24.261719 9.492188 24.226562 9.496094 24.183594 C 9.496094 24.140625 9.503906 24.109375 9.519531 24.085938 C 9.53125 23.832031 9.539062 23.574219 9.539062 23.316406 C 9.539062 23.058594 9.539062 22.800781 9.539062 22.546875 C 9.539062 22.523438 9.539062 22.492188 9.539062 22.449219 C 9.539062 22.40625 9.539062 22.363281 9.535156 22.320312 C 9.53125 22.273438 9.53125 22.230469 9.527344 22.195312 C 9.527344 22.15625 9.523438 22.128906 9.519531 22.109375 C 9.523438 22.078125 9.523438 22.046875 9.523438 22.019531 C 9.523438 21.992188 9.523438 21.960938 9.523438 21.929688 C 9.523438 21.902344 9.523438 21.875 9.523438 21.855469 C 9.523438 21.832031 9.519531 21.808594 9.511719 21.789062 C 9.515625 21.769531 9.519531 21.746094 9.519531 21.714844 C 9.519531 21.691406 9.515625 21.667969 9.511719 21.644531 C 9.507812 21.625 9.503906 21.601562 9.503906 21.578125 C 9.503906 21.542969 9.503906 21.507812 9.507812 21.476562 C 9.511719 21.441406 9.511719 21.40625 9.511719 21.371094 C 9.511719 21.253906 9.503906 21.136719 9.496094 21.023438 C 9.484375 20.910156 9.476562 20.792969 9.476562 20.675781 C 9.476562 20.523438 9.476562 20.371094 9.472656 20.21875 C 9.472656 20.066406 9.46875 19.914062 9.464844 19.761719 C 9.480469 19.71875 9.488281 19.679688 9.488281 19.648438 C 9.554688 19.617188 9.605469 19.605469 9.640625 19.617188 C 9.679688 19.625 9.714844 19.628906 9.75 19.628906 C 9.773438 19.628906 9.792969 19.625 9.8125 19.621094 C 9.832031 19.617188 9.847656 19.613281 9.867188 19.601562 C 9.890625 19.605469 9.910156 19.613281 9.925781 19.617188 C 9.941406 19.625 9.960938 19.628906 9.984375 19.628906 C 10.050781 19.617188 10.089844 19.613281 10.097656 19.621094 C 10.105469 19.632812 10.113281 19.640625 10.128906 19.648438 C 10.144531 19.644531 10.160156 19.636719 10.171875 19.625 C 10.183594 19.613281 10.199219 19.609375 10.21875 19.609375 C 10.246094 19.609375 10.265625 19.625 10.277344 19.660156 C 10.292969 19.691406 10.308594 19.71875 10.328125 19.742188 C 10.328125 19.792969 10.335938 19.835938 10.355469 19.878906 C 10.363281 20.0625 10.367188 20.242188 10.363281 20.421875 C 10.363281 20.601562 10.367188 20.78125 10.382812 20.960938 C 10.386719 21.039062 10.390625 21.125 10.398438 21.210938 C 10.40625 21.300781 10.410156 21.382812 10.410156 21.464844 C 10.410156 21.597656 10.410156 21.734375 10.414062 21.871094 C 10.414062 22.007812 10.417969 22.144531 10.417969 22.285156 C 10.417969 22.308594 10.417969 22.328125 10.417969 22.34375 C 10.421875 22.363281 10.421875 22.382812 10.421875 22.40625 C 10.421875 22.460938 10.421875 22.511719 10.417969 22.558594 C 10.414062 22.609375 10.410156 22.660156 10.410156 22.707031 L 10.410156 23.234375 C 10.410156 23.277344 10.410156 23.324219 10.40625 23.371094 C 10.402344 23.417969 10.40625 23.464844 10.410156 23.507812 L 10.4375 23.589844 C 10.488281 23.570312 10.539062 23.550781 10.589844 23.53125 C 10.644531 23.511719 10.699219 23.496094 10.757812 23.488281 C 10.796875 23.480469 10.832031 23.46875 10.863281 23.460938 C 10.894531 23.453125 10.929688 23.441406 10.964844 23.433594 C 11.027344 23.398438 11.078125 23.375 11.117188 23.359375 C 11.152344 23.347656 11.1875 23.332031 11.226562 23.320312 C 11.304688 23.292969 11.378906 23.265625 11.453125 23.234375 C 11.523438 23.207031 11.601562 23.179688 11.679688 23.152344 C 11.714844 23.160156 11.742188 23.15625 11.765625 23.136719 C 11.8125 23.148438 11.851562 23.152344 11.890625 23.152344 C 11.941406 23.203125 11.972656 23.238281 11.984375 23.265625 C 11.992188 23.292969 12.011719 23.316406 12.035156 23.339844 C 12.023438 23.363281 12.027344 23.375 12.039062 23.378906 C 12.050781 23.386719 12.058594 23.394531 12.0625 23.414062 C 12.078125 23.421875 12.082031 23.433594 12.066406 23.449219 C 12.054688 23.464844 12.046875 23.480469 12.042969 23.496094 Z M 13.550781 22.882812 C 13.558594 22.90625 13.59375 22.953125 13.648438 23.023438 C 13.707031 23.09375 13.773438 23.175781 13.84375 23.257812 C 13.917969 23.34375 13.988281 23.425781 14.054688 23.503906 C 14.121094 23.582031 14.167969 23.640625 14.195312 23.675781 C 14.242188 23.738281 14.292969 23.800781 14.34375 23.859375 C 14.390625 23.921875 14.433594 23.984375 14.476562 24.050781 L 14.597656 24.253906 C 14.636719 24.300781 14.667969 24.335938 14.699219 24.367188 C 14.726562 24.398438 14.75 24.441406 14.769531 24.496094 C 14.78125 24.53125 14.785156 24.558594 14.785156 24.570312 C 14.785156 24.601562 14.773438 24.625 14.75 24.636719 C 14.710938 24.636719 14.695312 24.644531 14.691406 24.652344 C 14.6875 24.664062 14.679688 24.675781 14.660156 24.683594 C 14.640625 24.695312 14.613281 24.699219 14.574219 24.703125 C 14.535156 24.703125 14.503906 24.703125 14.480469 24.703125 C 14.441406 24.703125 14.390625 24.703125 14.328125 24.703125 C 14.265625 24.699219 14.21875 24.703125 14.179688 24.71875 C 14.171875 24.722656 14.15625 24.730469 14.140625 24.738281 C 14.121094 24.746094 14.105469 24.75 14.097656 24.75 C 14.0625 24.75 14.035156 24.746094 14.019531 24.734375 C 14.003906 24.722656 13.980469 24.714844 13.953125 24.710938 C 13.917969 24.671875 13.886719 24.628906 13.863281 24.585938 C 13.835938 24.542969 13.808594 24.5 13.777344 24.457031 C 13.742188 24.425781 13.710938 24.398438 13.679688 24.371094 C 13.648438 24.347656 13.621094 24.320312 13.597656 24.289062 C 13.527344 24.191406 13.457031 24.09375 13.386719 24 C 13.3125 23.90625 13.234375 23.8125 13.15625 23.722656 C 13.121094 23.671875 13.082031 23.628906 13.042969 23.589844 C 13 23.546875 12.960938 23.503906 12.925781 23.453125 C 12.886719 23.410156 12.855469 23.363281 12.824219 23.308594 C 12.789062 23.257812 12.757812 23.207031 12.726562 23.160156 C 12.699219 23.117188 12.664062 23.066406 12.617188 23 C 12.570312 22.933594 12.519531 22.871094 12.464844 22.804688 C 12.410156 22.742188 12.355469 22.679688 12.300781 22.621094 C 12.246094 22.5625 12.199219 22.519531 12.164062 22.488281 C 12.160156 22.460938 12.148438 22.4375 12.128906 22.421875 C 12.113281 22.40625 12.089844 22.390625 12.066406 22.378906 C 12.058594 22.355469 12.046875 22.335938 12.039062 22.316406 C 12.027344 22.292969 12.019531 22.273438 12.019531 22.25 C 12.019531 22.21875 12.027344 22.191406 12.042969 22.164062 C 12.050781 22.144531 12.054688 22.128906 12.058594 22.113281 C 12.058594 22.097656 12.066406 22.082031 12.074219 22.0625 C 12.097656 22.011719 12.128906 21.964844 12.167969 21.917969 C 12.207031 21.871094 12.238281 21.820312 12.261719 21.765625 C 12.269531 21.753906 12.273438 21.738281 12.273438 21.722656 C 12.273438 21.707031 12.277344 21.691406 12.289062 21.679688 C 12.296875 21.644531 12.316406 21.613281 12.347656 21.589844 C 12.375 21.5625 12.398438 21.535156 12.417969 21.503906 C 12.441406 21.46875 12.464844 21.433594 12.484375 21.394531 C 12.503906 21.355469 12.523438 21.316406 12.546875 21.269531 C 12.617188 21.15625 12.6875 21.050781 12.765625 20.941406 C 12.839844 20.835938 12.914062 20.730469 12.992188 20.625 C 13.054688 20.535156 13.113281 20.449219 13.167969 20.363281 C 13.226562 20.28125 13.285156 20.199219 13.34375 20.113281 C 13.375 20.074219 13.410156 20.027344 13.449219 19.972656 C 13.484375 19.917969 13.523438 19.863281 13.566406 19.808594 C 13.609375 19.757812 13.652344 19.707031 13.699219 19.664062 C 13.746094 19.617188 13.792969 19.582031 13.835938 19.554688 C 13.90625 19.550781 13.953125 19.566406 13.972656 19.597656 C 13.996094 19.632812 14.03125 19.648438 14.078125 19.648438 C 14.136719 19.664062 14.175781 19.679688 14.195312 19.703125 C 14.210938 19.726562 14.234375 19.75 14.257812 19.769531 C 14.320312 19.769531 14.371094 19.78125 14.410156 19.804688 C 14.449219 19.828125 14.488281 19.859375 14.523438 19.90625 C 14.507812 19.953125 14.488281 19.996094 14.460938 20.035156 C 14.433594 20.074219 14.410156 20.113281 14.386719 20.152344 C 14.347656 20.171875 14.324219 20.195312 14.308594 20.226562 C 14.289062 20.257812 14.265625 20.285156 14.234375 20.300781 C 14.1875 20.378906 14.140625 20.449219 14.09375 20.519531 C 14.042969 20.589844 13.992188 20.65625 13.941406 20.722656 C 13.914062 20.765625 13.882812 20.800781 13.855469 20.832031 C 13.824219 20.863281 13.796875 20.898438 13.777344 20.933594 C 13.765625 20.945312 13.757812 20.960938 13.753906 20.976562 C 13.746094 20.992188 13.738281 21.007812 13.726562 21.019531 C 13.671875 21.105469 13.613281 21.1875 13.550781 21.261719 C 13.484375 21.332031 13.425781 21.414062 13.371094 21.503906 C 13.351562 21.535156 13.335938 21.570312 13.328125 21.601562 C 13.316406 21.636719 13.300781 21.667969 13.28125 21.699219 C 13.265625 21.726562 13.238281 21.761719 13.203125 21.808594 C 13.167969 21.851562 13.136719 21.898438 13.101562 21.953125 C 13.070312 22.003906 13.042969 22.054688 13.019531 22.101562 C 12.992188 22.148438 12.980469 22.1875 12.980469 22.21875 C 12.984375 22.238281 13.011719 22.285156 13.066406 22.347656 C 13.121094 22.414062 13.179688 22.484375 13.242188 22.558594 C 13.308594 22.628906 13.375 22.699219 13.433594 22.765625 C 13.492188 22.832031 13.53125 22.871094 13.550781 22.882812 Z M 14.003906 21.660156 C 14.035156 21.726562 14.066406 21.785156 14.105469 21.835938 C 14.117188 21.851562 14.132812 21.867188 14.152344 21.882812 C 14.171875 21.894531 14.183594 21.914062 14.195312 21.933594 C 14.203125 21.945312 14.210938 21.964844 14.222656 21.992188 C 14.230469 22.019531 14.238281 22.042969 14.25 22.054688 C 14.261719 22.089844 14.289062 22.132812 14.332031 22.175781 C 14.371094 22.222656 14.390625 22.261719 14.390625 22.296875 C 14.390625 22.320312 14.386719 22.34375 14.378906 22.371094 C 14.371094 22.398438 14.363281 22.421875 14.359375 22.445312 C 14.355469 22.472656 14.351562 22.5 14.351562 22.53125 C 14.351562 22.558594 14.34375 22.585938 14.324219 22.609375 C 14.300781 22.628906 14.277344 22.644531 14.25 22.648438 C 14.222656 22.652344 14.195312 22.664062 14.171875 22.679688 C 14.164062 22.691406 14.148438 22.707031 14.132812 22.726562 C 14.113281 22.75 14.09375 22.777344 14.078125 22.800781 C 14.058594 22.828125 14.042969 22.855469 14.027344 22.878906 C 14.011719 22.902344 14.003906 22.921875 14.003906 22.9375 C 13.945312 22.941406 13.910156 22.941406 13.894531 22.941406 C 13.878906 22.9375 13.863281 22.9375 13.84375 22.945312 C 13.820312 22.921875 13.796875 22.902344 13.773438 22.886719 C 13.746094 22.871094 13.71875 22.855469 13.679688 22.84375 C 13.671875 22.804688 13.652344 22.765625 13.617188 22.71875 C 13.585938 22.671875 13.558594 22.632812 13.535156 22.601562 L 13.488281 22.539062 C 13.417969 22.445312 13.355469 22.355469 13.300781 22.269531 C 13.242188 22.179688 13.199219 22.082031 13.171875 21.976562 C 13.257812 21.914062 13.328125 21.867188 13.375 21.835938 C 13.421875 21.804688 13.472656 21.773438 13.527344 21.746094 C 13.585938 21.71875 13.636719 21.695312 13.691406 21.667969 C 13.742188 21.644531 13.792969 21.613281 13.835938 21.578125 C 13.875 21.578125 13.898438 21.582031 13.914062 21.585938 C 13.925781 21.589844 13.933594 21.59375 13.941406 21.597656 C 13.945312 21.601562 13.949219 21.609375 13.957031 21.621094 C 13.964844 21.632812 13.980469 21.644531 14.003906 21.660156 Z M 16.210938 22.882812 C 16.21875 22.90625 16.253906 22.953125 16.308594 23.023438 C 16.367188 23.09375 16.429688 23.175781 16.503906 23.257812 C 16.578125 23.34375 16.648438 23.425781 16.714844 23.503906 C 16.78125 23.582031 16.828125 23.640625 16.855469 23.675781 C 16.90625 23.738281 16.953125 23.800781 17 23.859375 C 17.050781 23.921875 17.09375 23.984375 17.136719 24.050781 L 17.257812 24.253906 C 17.296875 24.300781 17.328125 24.335938 17.359375 24.367188 C 17.386719 24.398438 17.410156 24.441406 17.429688 24.496094 C 17.4375 24.53125 17.445312 24.558594 17.445312 24.570312 C 17.445312 24.601562 17.433594 24.625 17.410156 24.636719 C 17.371094 24.636719 17.351562 24.644531 17.351562 24.652344 C 17.347656 24.664062 17.339844 24.675781 17.320312 24.683594 C 17.300781 24.695312 17.273438 24.699219 17.234375 24.703125 C 17.195312 24.703125 17.164062 24.703125 17.140625 24.703125 C 17.101562 24.703125 17.050781 24.703125 16.988281 24.703125 C 16.925781 24.699219 16.875 24.703125 16.839844 24.71875 C 16.832031 24.722656 16.816406 24.730469 16.800781 24.738281 C 16.78125 24.746094 16.765625 24.75 16.757812 24.75 C 16.722656 24.75 16.695312 24.746094 16.679688 24.734375 C 16.664062 24.722656 16.640625 24.714844 16.613281 24.710938 C 16.578125 24.671875 16.546875 24.628906 16.519531 24.585938 C 16.496094 24.542969 16.46875 24.5 16.4375 24.457031 C 16.402344 24.425781 16.371094 24.398438 16.339844 24.371094 C 16.308594 24.347656 16.28125 24.320312 16.257812 24.289062 C 16.1875 24.191406 16.117188 24.09375 16.046875 24 C 15.972656 23.90625 15.898438 23.8125 15.820312 23.722656 C 15.78125 23.671875 15.742188 23.628906 15.703125 23.589844 C 15.660156 23.546875 15.621094 23.503906 15.585938 23.453125 C 15.550781 23.410156 15.515625 23.363281 15.480469 23.308594 C 15.449219 23.257812 15.417969 23.207031 15.386719 23.160156 C 15.359375 23.117188 15.324219 23.066406 15.277344 23 C 15.230469 22.933594 15.179688 22.871094 15.125 22.804688 C 15.070312 22.742188 15.015625 22.679688 14.960938 22.621094 C 14.90625 22.5625 14.863281 22.519531 14.824219 22.488281 C 14.820312 22.460938 14.808594 22.4375 14.789062 22.421875 C 14.773438 22.40625 14.75 22.390625 14.726562 22.378906 C 14.71875 22.355469 14.710938 22.335938 14.695312 22.316406 C 14.6875 22.292969 14.679688 22.273438 14.679688 22.25 C 14.679688 22.21875 14.6875 22.191406 14.703125 22.164062 C 14.710938 22.144531 14.714844 22.128906 14.71875 22.113281 C 14.71875 22.097656 14.726562 22.082031 14.734375 22.0625 C 14.757812 22.011719 14.789062 21.964844 14.828125 21.917969 C 14.867188 21.871094 14.898438 21.820312 14.921875 21.765625 C 14.929688 21.753906 14.933594 21.738281 14.933594 21.722656 C 14.933594 21.707031 14.9375 21.691406 14.949219 21.679688 C 14.957031 21.644531 14.976562 21.613281 15.007812 21.589844 C 15.035156 21.5625 15.058594 21.535156 15.078125 21.503906 C 15.101562 21.46875 15.125 21.433594 15.144531 21.394531 C 15.164062 21.355469 15.1875 21.316406 15.207031 21.269531 C 15.277344 21.15625 15.347656 21.050781 15.425781 20.941406 C 15.5 20.835938 15.578125 20.730469 15.65625 20.625 C 15.714844 20.535156 15.773438 20.449219 15.828125 20.363281 C 15.886719 20.28125 15.945312 20.199219 16.003906 20.113281 C 16.035156 20.074219 16.070312 20.027344 16.105469 19.972656 C 16.144531 19.917969 16.183594 19.863281 16.226562 19.808594 C 16.269531 19.757812 16.316406 19.707031 16.359375 19.664062 C 16.40625 19.617188 16.453125 19.582031 16.496094 19.554688 C 16.566406 19.550781 16.613281 19.566406 16.636719 19.597656 C 16.65625 19.632812 16.691406 19.648438 16.738281 19.648438 C 16.796875 19.664062 16.835938 19.679688 16.855469 19.703125 C 16.871094 19.726562 16.894531 19.75 16.914062 19.769531 C 16.980469 19.769531 17.03125 19.78125 17.070312 19.804688 C 17.109375 19.828125 17.144531 19.859375 17.183594 19.90625 C 17.167969 19.953125 17.148438 19.996094 17.121094 20.035156 C 17.09375 20.074219 17.070312 20.113281 17.046875 20.152344 C 17.011719 20.171875 16.984375 20.195312 16.96875 20.226562 C 16.953125 20.257812 16.925781 20.285156 16.894531 20.300781 C 16.847656 20.378906 16.800781 20.449219 16.75 20.519531 C 16.699219 20.589844 16.652344 20.65625 16.601562 20.722656 C 16.574219 20.765625 16.542969 20.800781 16.515625 20.832031 C 16.484375 20.863281 16.460938 20.898438 16.4375 20.933594 C 16.425781 20.945312 16.417969 20.960938 16.410156 20.976562 C 16.40625 20.992188 16.398438 21.007812 16.386719 21.019531 C 16.332031 21.105469 16.273438 21.1875 16.210938 21.261719 C 16.144531 21.332031 16.085938 21.414062 16.03125 21.503906 C 16.011719 21.535156 16 21.570312 15.984375 21.601562 C 15.976562 21.636719 15.960938 21.667969 15.941406 21.699219 C 15.925781 21.726562 15.898438 21.761719 15.863281 21.808594 C 15.828125 21.851562 15.796875 21.898438 15.765625 21.953125 C 15.730469 22.003906 15.703125 22.054688 15.679688 22.101562 C 15.652344 22.148438 15.640625 22.1875 15.640625 22.21875 C 15.644531 22.238281 15.675781 22.285156 15.726562 22.347656 C 15.777344 22.414062 15.839844 22.484375 15.90625 22.558594 C 15.972656 22.628906 16.035156 22.699219 16.09375 22.765625 C 16.152344 22.832031 16.191406 22.871094 16.210938 22.882812 Z M 16.660156 21.660156 C 16.695312 21.726562 16.726562 21.785156 16.765625 21.835938 C 16.777344 21.851562 16.792969 21.867188 16.8125 21.882812 C 16.832031 21.894531 16.84375 21.914062 16.855469 21.933594 C 16.863281 21.945312 16.871094 21.964844 16.882812 21.992188 C 16.890625 22.019531 16.898438 22.042969 16.910156 22.054688 C 16.921875 22.089844 16.949219 22.132812 16.992188 22.175781 C 17.03125 22.222656 17.054688 22.261719 17.054688 22.296875 C 17.054688 22.320312 17.050781 22.34375 17.039062 22.371094 C 17.03125 22.398438 17.023438 22.421875 17.019531 22.445312 C 17.015625 22.472656 17.011719 22.5 17.011719 22.53125 C 17.011719 22.558594 17.003906 22.585938 16.984375 22.609375 C 16.960938 22.628906 16.9375 22.644531 16.910156 22.648438 C 16.882812 22.652344 16.855469 22.664062 16.832031 22.679688 C 16.824219 22.691406 16.8125 22.707031 16.792969 22.726562 C 16.773438 22.75 16.757812 22.777344 16.738281 22.800781 C 16.71875 22.828125 16.703125 22.855469 16.6875 22.878906 C 16.667969 22.902344 16.660156 22.921875 16.660156 22.9375 C 16.609375 22.941406 16.574219 22.941406 16.554688 22.941406 C 16.539062 22.9375 16.523438 22.9375 16.503906 22.945312 C 16.480469 22.921875 16.457031 22.902344 16.433594 22.886719 C 16.40625 22.871094 16.375 22.855469 16.339844 22.84375 C 16.332031 22.804688 16.308594 22.765625 16.277344 22.71875 C 16.246094 22.671875 16.21875 22.632812 16.195312 22.601562 L 16.148438 22.539062 C 16.078125 22.445312 16.015625 22.355469 15.960938 22.269531 C 15.902344 22.179688 15.859375 22.082031 15.832031 21.976562 C 15.917969 21.914062 15.988281 21.867188 16.035156 21.835938 C 16.082031 21.804688 16.132812 21.773438 16.1875 21.746094 C 16.242188 21.71875 16.296875 21.695312 16.351562 21.667969 C 16.402344 21.644531 16.453125 21.613281 16.496094 21.578125 C 16.535156 21.578125 16.558594 21.582031 16.574219 21.585938 C 16.585938 21.589844 16.59375 21.59375 16.601562 21.597656 C 16.605469 21.601562 16.609375 21.609375 16.617188 21.621094 C 16.625 21.632812 16.640625 21.644531 16.660156 21.660156 Z M 20.660156 19.835938 C 20.648438 19.855469 20.648438 19.871094 20.648438 19.890625 C 20.652344 19.910156 20.652344 19.929688 20.652344 19.953125 C 20.644531 20.003906 20.644531 20.03125 20.652344 20.03125 C 20.660156 20.03125 20.667969 20.035156 20.667969 20.046875 L 20.617188 20.113281 C 20.617188 20.140625 20.613281 20.164062 20.601562 20.1875 C 20.589844 20.210938 20.585938 20.234375 20.589844 20.265625 C 20.578125 20.289062 20.5625 20.3125 20.554688 20.335938 C 20.542969 20.359375 20.523438 20.378906 20.5 20.402344 L 20.414062 20.402344 C 20.363281 20.402344 20.308594 20.40625 20.25 20.410156 C 20.195312 20.417969 20.136719 20.421875 20.085938 20.421875 C 20.074219 20.421875 20.0625 20.421875 20.050781 20.417969 C 20.035156 20.417969 20.023438 20.414062 20.007812 20.414062 C 20 20.414062 19.988281 20.417969 19.972656 20.417969 C 19.960938 20.421875 19.945312 20.421875 19.925781 20.421875 C 19.855469 20.421875 19.789062 20.417969 19.722656 20.410156 C 19.65625 20.40625 19.585938 20.402344 19.515625 20.402344 C 19.496094 20.402344 19.476562 20.402344 19.460938 20.402344 C 19.441406 20.402344 19.421875 20.40625 19.398438 20.410156 C 19.394531 20.484375 19.390625 20.5625 19.386719 20.640625 C 19.386719 20.71875 19.382812 20.800781 19.382812 20.878906 C 19.382812 20.902344 19.382812 20.925781 19.378906 20.949219 C 19.371094 20.976562 19.371094 21 19.371094 21.019531 C 19.367188 21.078125 19.363281 21.136719 19.359375 21.1875 C 19.359375 21.242188 19.355469 21.296875 19.355469 21.355469 C 19.355469 21.480469 19.359375 21.609375 19.359375 21.734375 C 19.363281 21.859375 19.367188 21.984375 19.371094 22.117188 C 19.375 22.183594 19.378906 22.25 19.382812 22.3125 C 19.386719 22.375 19.390625 22.4375 19.390625 22.507812 C 19.390625 22.660156 19.386719 22.808594 19.382812 22.960938 C 19.378906 23.109375 19.378906 23.261719 19.378906 23.414062 C 19.378906 23.464844 19.375 23.507812 19.371094 23.550781 C 19.367188 23.59375 19.363281 23.640625 19.363281 23.691406 C 19.363281 23.792969 19.367188 23.894531 19.371094 24 C 19.375 24.101562 19.378906 24.207031 19.378906 24.308594 C 19.378906 24.359375 19.375 24.40625 19.375 24.457031 C 19.371094 24.503906 19.371094 24.554688 19.371094 24.605469 C 19.347656 24.640625 19.332031 24.671875 19.324219 24.699219 C 19.3125 24.726562 19.285156 24.738281 19.238281 24.738281 C 19.207031 24.730469 19.191406 24.71875 19.195312 24.707031 C 19.199219 24.695312 19.195312 24.6875 19.183594 24.675781 C 19.144531 24.671875 19.113281 24.675781 19.09375 24.6875 C 19.070312 24.699219 19.046875 24.710938 19.019531 24.71875 C 19.007812 24.714844 18.992188 24.710938 18.976562 24.710938 C 18.960938 24.710938 18.945312 24.710938 18.929688 24.710938 C 18.921875 24.710938 18.914062 24.714844 18.90625 24.722656 C 18.894531 24.726562 18.875 24.730469 18.84375 24.730469 C 18.816406 24.734375 18.796875 24.730469 18.792969 24.71875 C 18.789062 24.703125 18.777344 24.699219 18.753906 24.699219 C 18.730469 24.710938 18.703125 24.722656 18.675781 24.726562 C 18.644531 24.734375 18.617188 24.738281 18.589844 24.738281 C 18.5625 24.71875 18.546875 24.703125 18.550781 24.6875 C 18.554688 24.671875 18.550781 24.65625 18.539062 24.636719 C 18.535156 24.628906 18.527344 24.617188 18.515625 24.601562 C 18.503906 24.585938 18.496094 24.574219 18.484375 24.5625 C 18.496094 24.5 18.503906 24.445312 18.507812 24.394531 C 18.511719 24.347656 18.511719 24.292969 18.511719 24.234375 C 18.511719 24.117188 18.507812 24.003906 18.5 23.890625 C 18.492188 23.777344 18.484375 23.664062 18.484375 23.546875 C 18.484375 23.511719 18.492188 23.472656 18.5 23.433594 C 18.507812 23.394531 18.511719 23.351562 18.511719 23.304688 C 18.503906 23.269531 18.503906 23.25 18.507812 23.242188 C 18.511719 23.238281 18.511719 23.230469 18.511719 23.21875 C 18.511719 23.191406 18.511719 23.164062 18.511719 23.136719 C 18.507812 23.113281 18.507812 23.085938 18.507812 23.058594 C 18.507812 23.003906 18.507812 22.949219 18.511719 22.894531 C 18.511719 22.84375 18.511719 22.789062 18.511719 22.734375 C 18.511719 22.710938 18.511719 22.6875 18.511719 22.664062 C 18.507812 22.640625 18.507812 22.617188 18.507812 22.59375 C 18.503906 22.554688 18.5 22.511719 18.503906 22.464844 C 18.503906 22.421875 18.507812 22.375 18.507812 22.332031 C 18.507812 22.117188 18.503906 21.902344 18.496094 21.691406 C 18.488281 21.480469 18.484375 21.269531 18.484375 21.054688 C 18.484375 20.949219 18.492188 20.84375 18.503906 20.738281 C 18.515625 20.628906 18.519531 20.523438 18.519531 20.414062 C 18.519531 20.402344 18.515625 20.382812 18.507812 20.363281 C 18.496094 20.339844 18.488281 20.324219 18.480469 20.3125 C 18.457031 20.3125 18.433594 20.3125 18.414062 20.3125 C 18.394531 20.308594 18.371094 20.308594 18.347656 20.308594 C 18.296875 20.308594 18.25 20.316406 18.203125 20.328125 C 18.117188 20.332031 18.035156 20.339844 17.953125 20.34375 C 17.875 20.351562 17.792969 20.359375 17.710938 20.363281 C 17.65625 20.359375 17.625 20.355469 17.609375 20.359375 C 17.601562 20.359375 17.585938 20.363281 17.574219 20.363281 C 17.535156 20.363281 17.507812 20.351562 17.492188 20.335938 L 17.492188 20.246094 C 17.464844 20.195312 17.453125 20.164062 17.457031 20.160156 C 17.460938 20.15625 17.464844 20.148438 17.464844 20.140625 C 17.464844 20.125 17.449219 20.113281 17.425781 20.097656 C 17.402344 20.082031 17.390625 20.054688 17.390625 20.019531 C 17.382812 19.984375 17.375 19.957031 17.359375 19.9375 C 17.347656 19.917969 17.339844 19.902344 17.339844 19.882812 C 17.339844 19.851562 17.347656 19.816406 17.359375 19.777344 C 17.402344 19.753906 17.441406 19.738281 17.480469 19.730469 C 17.519531 19.722656 17.566406 19.710938 17.617188 19.695312 C 17.640625 19.6875 17.667969 19.679688 17.691406 19.667969 C 17.714844 19.660156 17.738281 19.652344 17.765625 19.648438 C 17.796875 19.644531 17.828125 19.640625 17.863281 19.640625 C 17.894531 19.640625 17.925781 19.640625 17.957031 19.636719 C 18.027344 19.621094 18.097656 19.613281 18.175781 19.601562 C 18.25 19.59375 18.320312 19.589844 18.390625 19.589844 C 18.453125 19.589844 18.519531 19.597656 18.582031 19.613281 C 18.644531 19.628906 18.703125 19.636719 18.753906 19.636719 C 18.824219 19.636719 18.894531 19.640625 18.960938 19.648438 C 19.027344 19.660156 19.097656 19.664062 19.171875 19.664062 C 19.179688 19.664062 19.195312 19.667969 19.214844 19.671875 C 19.238281 19.679688 19.261719 19.683594 19.289062 19.683594 L 19.953125 19.683594 C 19.988281 19.691406 20.015625 19.695312 20.03125 19.6875 C 20.046875 19.683594 20.0625 19.683594 20.078125 19.683594 C 20.113281 19.683594 20.148438 19.683594 20.179688 19.6875 C 20.210938 19.695312 20.246094 19.695312 20.28125 19.695312 C 20.3125 19.695312 20.339844 19.695312 20.359375 19.6875 C 20.394531 19.695312 20.429688 19.703125 20.460938 19.71875 C 20.492188 19.734375 20.527344 19.742188 20.570312 19.742188 C 20.589844 19.757812 20.601562 19.773438 20.613281 19.792969 C 20.621094 19.8125 20.636719 19.828125 20.660156 19.835938 Z M 23.828125 23.835938 C 23.78125 23.84375 23.753906 23.839844 23.746094 23.832031 C 23.726562 23.839844 23.707031 23.847656 23.691406 23.859375 C 23.675781 23.867188 23.660156 23.878906 23.640625 23.890625 C 23.578125 23.914062 23.515625 23.945312 23.453125 23.980469 C 23.390625 24.015625 23.328125 24.046875 23.265625 24.078125 C 23.226562 24.097656 23.191406 24.113281 23.15625 24.125 C 23.125 24.136719 23.089844 24.148438 23.050781 24.167969 C 22.996094 24.195312 22.941406 24.222656 22.886719 24.25 C 22.832031 24.28125 22.777344 24.304688 22.714844 24.328125 C 22.683594 24.335938 22.652344 24.347656 22.621094 24.355469 C 22.59375 24.363281 22.5625 24.375 22.53125 24.382812 C 22.492188 24.394531 22.460938 24.410156 22.433594 24.425781 C 22.402344 24.441406 22.371094 24.457031 22.339844 24.46875 C 22.316406 24.480469 22.292969 24.488281 22.269531 24.492188 C 22.242188 24.5 22.214844 24.507812 22.1875 24.523438 C 22.164062 24.53125 22.144531 24.542969 22.128906 24.558594 C 22.113281 24.570312 22.09375 24.582031 22.070312 24.589844 C 22.035156 24.605469 21.996094 24.617188 21.957031 24.628906 C 21.917969 24.644531 21.882812 24.660156 21.84375 24.675781 C 21.808594 24.695312 21.78125 24.710938 21.765625 24.726562 C 21.75 24.742188 21.71875 24.757812 21.671875 24.773438 C 21.628906 24.800781 21.601562 24.8125 21.597656 24.816406 C 21.59375 24.820312 21.585938 24.820312 21.578125 24.820312 C 21.5625 24.828125 21.550781 24.835938 21.539062 24.84375 C 21.527344 24.847656 21.515625 24.855469 21.503906 24.867188 C 21.476562 24.867188 21.449219 24.867188 21.417969 24.871094 C 21.390625 24.878906 21.363281 24.878906 21.339844 24.878906 C 21.304688 24.863281 21.285156 24.84375 21.273438 24.828125 C 21.261719 24.808594 21.253906 24.78125 21.253906 24.75 C 21.238281 24.730469 21.21875 24.703125 21.203125 24.675781 C 21.1875 24.652344 21.171875 24.625 21.152344 24.605469 C 21.121094 24.621094 21.101562 24.621094 21.09375 24.601562 C 21.085938 24.582031 21.082031 24.558594 21.078125 24.53125 C 21.070312 24.507812 21.066406 24.484375 21.0625 24.460938 C 21.058594 24.433594 21.054688 24.417969 21.050781 24.410156 C 21.027344 24.324219 21.015625 24.261719 21.015625 24.21875 C 21.015625 24.199219 21.019531 24.183594 21.027344 24.175781 C 21.039062 24.171875 21.042969 24.160156 21.042969 24.148438 C 21.046875 24.101562 21.050781 24.050781 21.058594 23.992188 C 21.0625 23.933594 21.0625 23.875 21.0625 23.8125 C 21.0625 23.75 21.0625 23.683594 21.0625 23.621094 C 21.0625 23.558594 21.0625 23.503906 21.0625 23.453125 C 21.0625 23.253906 21.0625 23.054688 21.058594 22.867188 C 21.050781 22.675781 21.050781 22.484375 21.050781 22.292969 C 21.050781 22.203125 21.050781 22.113281 21.058594 22.023438 C 21.0625 21.933594 21.0625 21.84375 21.0625 21.753906 C 21.0625 21.535156 21.066406 21.316406 21.074219 21.101562 C 21.082031 20.886719 21.082031 20.667969 21.082031 20.449219 C 21.082031 20.359375 21.078125 20.269531 21.070312 20.175781 C 21.0625 20.085938 21.054688 19.992188 21.050781 19.898438 C 21.046875 19.847656 21.046875 19.808594 21.058594 19.78125 C 21.066406 19.75 21.066406 19.722656 21.0625 19.6875 C 21.078125 19.683594 21.101562 19.683594 21.136719 19.683594 C 21.175781 19.683594 21.214844 19.679688 21.253906 19.679688 C 21.289062 19.675781 21.328125 19.675781 21.363281 19.671875 C 21.398438 19.671875 21.417969 19.667969 21.425781 19.664062 C 21.460938 19.683594 21.492188 19.695312 21.523438 19.695312 C 21.554688 19.695312 21.585938 19.683594 21.613281 19.65625 C 21.636719 19.664062 21.648438 19.671875 21.648438 19.675781 C 21.652344 19.679688 21.664062 19.683594 21.6875 19.683594 C 21.730469 19.679688 21.761719 19.675781 21.78125 19.671875 C 21.804688 19.671875 21.828125 19.667969 21.84375 19.667969 C 21.894531 19.707031 21.925781 19.75 21.9375 19.800781 C 21.949219 19.851562 21.957031 19.90625 21.960938 19.960938 C 21.964844 20.019531 21.96875 20.074219 21.972656 20.128906 C 21.976562 20.1875 21.976562 20.230469 21.976562 20.265625 C 21.976562 20.292969 21.976562 20.324219 21.984375 20.351562 C 21.988281 20.378906 21.988281 20.410156 21.988281 20.441406 C 21.988281 20.464844 21.988281 20.488281 21.984375 20.507812 C 21.984375 20.53125 21.984375 20.554688 21.984375 20.578125 C 21.984375 20.707031 21.984375 20.839844 21.984375 20.972656 C 21.988281 21.109375 21.988281 21.238281 21.988281 21.371094 C 21.988281 21.601562 21.984375 21.835938 21.976562 22.074219 C 21.972656 22.308594 21.96875 22.542969 21.96875 22.777344 C 21.96875 22.824219 21.972656 22.875 21.976562 22.921875 C 21.980469 22.972656 21.984375 23.023438 21.984375 23.070312 C 21.984375 23.097656 21.980469 23.125 21.976562 23.152344 C 21.976562 23.179688 21.976562 23.207031 21.976562 23.234375 C 21.976562 23.398438 21.984375 23.5625 21.996094 23.730469 C 22.015625 23.726562 22.054688 23.714844 22.113281 23.691406 C 22.171875 23.671875 22.234375 23.648438 22.296875 23.625 C 22.363281 23.601562 22.421875 23.578125 22.476562 23.550781 C 22.53125 23.527344 22.566406 23.507812 22.578125 23.496094 C 22.597656 23.496094 22.621094 23.488281 22.652344 23.472656 C 22.6875 23.460938 22.722656 23.445312 22.757812 23.425781 C 22.792969 23.40625 22.828125 23.386719 22.863281 23.367188 C 22.898438 23.347656 22.921875 23.332031 22.9375 23.320312 C 22.929688 23.230469 22.929688 23.140625 22.929688 23.046875 C 22.929688 22.957031 22.929688 22.863281 22.929688 22.777344 C 22.929688 22.527344 22.933594 22.28125 22.9375 22.035156 C 22.945312 21.789062 22.949219 21.539062 22.949219 21.285156 C 22.949219 21.125 22.945312 20.96875 22.941406 20.8125 C 22.9375 20.65625 22.9375 20.5 22.9375 20.339844 C 22.9375 20.292969 22.9375 20.242188 22.9375 20.191406 C 22.941406 20.140625 22.941406 20.089844 22.941406 20.039062 C 22.941406 19.960938 22.941406 19.886719 22.9375 19.8125 C 22.9375 19.738281 22.941406 19.664062 22.949219 19.589844 C 22.996094 19.566406 23.019531 19.554688 23.023438 19.554688 C 23.050781 19.554688 23.070312 19.554688 23.082031 19.554688 C 23.09375 19.554688 23.105469 19.558594 23.113281 19.566406 C 23.128906 19.574219 23.140625 19.574219 23.152344 19.570312 C 23.164062 19.570312 23.175781 19.566406 23.1875 19.566406 C 23.210938 19.566406 23.234375 19.574219 23.257812 19.582031 C 23.28125 19.589844 23.304688 19.59375 23.328125 19.59375 C 23.363281 19.589844 23.382812 19.59375 23.382812 19.609375 C 23.386719 19.621094 23.394531 19.628906 23.40625 19.628906 C 23.445312 19.617188 23.46875 19.617188 23.484375 19.628906 C 23.496094 19.636719 23.523438 19.648438 23.558594 19.664062 C 23.597656 19.679688 23.636719 19.699219 23.675781 19.714844 C 23.71875 19.734375 23.753906 19.75 23.785156 19.765625 C 23.816406 19.78125 23.832031 19.796875 23.832031 19.808594 C 23.847656 19.882812 23.851562 19.957031 23.847656 20.039062 C 23.84375 20.121094 23.839844 20.195312 23.839844 20.265625 C 23.839844 20.332031 23.84375 20.394531 23.847656 20.457031 C 23.851562 20.519531 23.855469 20.582031 23.855469 20.644531 C 23.855469 20.679688 23.855469 20.714844 23.855469 20.753906 C 23.855469 20.789062 23.855469 20.820312 23.863281 20.851562 C 23.867188 20.875 23.867188 20.894531 23.867188 20.910156 C 23.867188 20.925781 23.867188 20.941406 23.867188 20.960938 C 23.867188 20.984375 23.871094 21.011719 23.882812 21.046875 C 23.878906 21.070312 23.875 21.09375 23.875 21.117188 C 23.875 21.144531 23.875 21.167969 23.875 21.1875 C 23.875 21.25 23.878906 21.316406 23.882812 21.382812 C 23.886719 21.449219 23.886719 21.519531 23.886719 21.585938 C 23.886719 21.628906 23.886719 21.671875 23.878906 21.714844 C 23.871094 21.753906 23.867188 21.792969 23.867188 21.835938 L 23.875 21.960938 C 23.875 22.007812 23.878906 22.050781 23.882812 22.097656 C 23.886719 22.140625 23.886719 22.1875 23.886719 22.238281 C 23.886719 22.257812 23.886719 22.28125 23.886719 22.304688 C 23.882812 22.328125 23.878906 22.351562 23.875 22.371094 C 23.871094 22.394531 23.867188 22.417969 23.867188 22.445312 C 23.867188 22.472656 23.867188 22.496094 23.867188 22.519531 C 23.867188 22.582031 23.871094 22.644531 23.875 22.707031 C 23.878906 22.769531 23.882812 22.832031 23.882812 22.894531 C 23.882812 22.9375 23.878906 22.976562 23.878906 23.015625 C 23.875 23.050781 23.875 23.089844 23.875 23.132812 C 23.875 23.210938 23.878906 23.296875 23.886719 23.378906 C 23.890625 23.464844 23.894531 23.550781 23.894531 23.628906 C 23.894531 23.664062 23.890625 23.703125 23.882812 23.742188 C 23.871094 23.785156 23.855469 23.816406 23.828125 23.835938 Z M 28.652344 19.640625 C 28.6875 19.699219 28.703125 19.769531 28.703125 19.84375 C 28.703125 19.910156 28.6875 19.984375 28.660156 20.058594 C 28.632812 20.136719 28.589844 20.195312 28.53125 20.234375 C 28.488281 20.324219 28.449219 20.398438 28.410156 20.453125 C 28.371094 20.507812 28.332031 20.5625 28.296875 20.617188 C 28.28125 20.648438 28.269531 20.679688 28.253906 20.707031 C 28.242188 20.738281 28.222656 20.765625 28.199219 20.796875 C 28.1875 20.820312 28.15625 20.867188 28.113281 20.933594 C 28.066406 21 28.019531 21.070312 27.972656 21.144531 C 27.921875 21.21875 27.878906 21.289062 27.84375 21.355469 C 27.808594 21.425781 27.789062 21.46875 27.789062 21.484375 C 27.789062 21.503906 27.8125 21.523438 27.855469 21.550781 C 27.898438 21.578125 27.925781 21.597656 27.941406 21.613281 C 27.964844 21.632812 27.984375 21.65625 28.003906 21.679688 C 28.027344 21.703125 28.046875 21.722656 28.070312 21.746094 C 28.121094 21.785156 28.167969 21.828125 28.21875 21.867188 C 28.265625 21.90625 28.316406 21.953125 28.363281 22.003906 C 28.460938 22.085938 28.5625 22.167969 28.667969 22.246094 C 28.773438 22.320312 28.867188 22.410156 28.949219 22.511719 C 29.027344 22.535156 29.074219 22.589844 29.097656 22.675781 C 29.121094 22.757812 29.128906 22.839844 29.121094 22.917969 C 29.128906 22.929688 29.136719 22.945312 29.144531 22.957031 C 29.152344 22.96875 29.160156 22.984375 29.167969 23.003906 C 29.167969 23.074219 29.15625 23.128906 29.136719 23.160156 C 29.117188 23.195312 29.09375 23.238281 29.070312 23.285156 C 29.050781 23.332031 29.035156 23.375 29.027344 23.421875 C 29.019531 23.464844 29.003906 23.503906 28.984375 23.542969 C 28.972656 23.554688 28.960938 23.566406 28.945312 23.574219 C 28.929688 23.585938 28.917969 23.597656 28.90625 23.617188 C 28.886719 23.648438 28.875 23.683594 28.863281 23.726562 C 28.851562 23.769531 28.835938 23.808594 28.820312 23.84375 C 28.804688 23.878906 28.789062 23.917969 28.765625 23.953125 C 28.746094 23.988281 28.730469 24.023438 28.714844 24.058594 C 28.707031 24.082031 28.699219 24.109375 28.691406 24.140625 C 28.683594 24.171875 28.664062 24.195312 28.625 24.207031 C 28.601562 24.289062 28.570312 24.367188 28.535156 24.445312 C 28.496094 24.519531 28.464844 24.597656 28.441406 24.675781 C 28.398438 24.691406 28.347656 24.71875 28.285156 24.757812 C 28.226562 24.792969 28.175781 24.8125 28.140625 24.8125 C 28.125 24.8125 28.113281 24.804688 28.105469 24.792969 C 28.097656 24.777344 28.082031 24.769531 28.0625 24.757812 C 28.054688 24.753906 28.042969 24.753906 28.027344 24.757812 C 28.011719 24.761719 27.996094 24.765625 27.988281 24.765625 C 27.964844 24.765625 27.949219 24.757812 27.9375 24.738281 C 27.925781 24.71875 27.910156 24.707031 27.890625 24.699219 C 27.878906 24.703125 27.863281 24.707031 27.851562 24.710938 C 27.835938 24.714844 27.824219 24.71875 27.808594 24.71875 C 27.777344 24.71875 27.761719 24.710938 27.753906 24.695312 C 27.75 24.679688 27.738281 24.664062 27.714844 24.652344 C 27.660156 24.625 27.628906 24.601562 27.617188 24.578125 C 27.609375 24.554688 27.59375 24.539062 27.578125 24.53125 C 27.609375 24.414062 27.652344 24.300781 27.707031 24.195312 C 27.761719 24.09375 27.816406 23.984375 27.863281 23.878906 C 27.878906 23.839844 27.894531 23.808594 27.914062 23.777344 C 27.9375 23.746094 27.957031 23.710938 27.976562 23.675781 C 27.988281 23.644531 28.007812 23.605469 28.035156 23.554688 C 28.0625 23.503906 28.089844 23.453125 28.113281 23.402344 C 28.136719 23.347656 28.15625 23.296875 28.175781 23.25 C 28.191406 23.203125 28.199219 23.164062 28.199219 23.132812 C 28.199219 23.070312 28.183594 23.023438 28.144531 22.992188 C 28.011719 22.882812 27.886719 22.773438 27.773438 22.660156 C 27.65625 22.546875 27.535156 22.433594 27.40625 22.320312 C 27.324219 22.246094 27.234375 22.171875 27.136719 22.097656 C 27.121094 22.082031 27.105469 22.0625 27.097656 22.035156 C 27.085938 22.007812 27.074219 21.984375 27.054688 21.960938 C 27.046875 21.945312 27.03125 21.929688 27.015625 21.921875 C 26.996094 21.914062 26.984375 21.898438 26.972656 21.882812 C 26.960938 21.863281 26.949219 21.84375 26.945312 21.816406 C 26.941406 21.792969 26.929688 21.773438 26.90625 21.761719 C 26.882812 21.738281 26.855469 21.722656 26.824219 21.71875 C 26.789062 21.714844 26.761719 21.703125 26.742188 21.679688 C 26.753906 21.667969 26.761719 21.652344 26.757812 21.636719 C 26.753906 21.621094 26.753906 21.605469 26.753906 21.59375 C 26.753906 21.5625 26.769531 21.539062 26.796875 21.523438 C 26.820312 21.511719 26.835938 21.488281 26.835938 21.453125 C 26.855469 21.414062 26.867188 21.394531 26.878906 21.382812 C 26.925781 21.261719 26.984375 21.144531 27.050781 21.035156 C 27.113281 20.921875 27.179688 20.808594 27.246094 20.699219 C 27.269531 20.664062 27.292969 20.628906 27.3125 20.59375 C 27.332031 20.558594 27.355469 20.523438 27.378906 20.488281 C 27.390625 20.457031 27.40625 20.429688 27.414062 20.40625 C 27.425781 20.382812 27.445312 20.359375 27.46875 20.335938 C 27.53125 20.261719 27.585938 20.195312 27.628906 20.132812 C 27.671875 20.070312 27.707031 19.996094 27.726562 19.90625 C 27.730469 19.882812 27.742188 19.851562 27.753906 19.808594 C 27.769531 19.769531 27.785156 19.730469 27.804688 19.6875 C 27.828125 19.648438 27.847656 19.613281 27.871094 19.582031 C 27.894531 19.550781 27.917969 19.535156 27.945312 19.535156 C 27.96875 19.535156 28.003906 19.542969 28.046875 19.5625 C 28.089844 19.578125 28.128906 19.59375 28.160156 19.601562 C 28.1875 19.613281 28.214844 19.621094 28.246094 19.625 C 28.277344 19.632812 28.304688 19.636719 28.332031 19.636719 C 28.347656 19.636719 28.367188 19.628906 28.386719 19.617188 C 28.402344 19.609375 28.425781 19.601562 28.449219 19.601562 C 28.484375 19.601562 28.519531 19.609375 28.550781 19.617188 C 28.582031 19.628906 28.617188 19.636719 28.652344 19.640625 Z M 32.511719 19.648438 L 32.582031 19.667969 C 32.636719 19.65625 32.675781 19.652344 32.699219 19.652344 C 32.722656 19.65625 32.746094 19.660156 32.765625 19.664062 C 32.792969 19.679688 32.816406 19.703125 32.835938 19.730469 C 32.835938 19.824219 32.835938 19.917969 32.832031 20.007812 C 32.832031 20.101562 32.828125 20.195312 32.828125 20.289062 C 32.828125 20.457031 32.832031 20.628906 32.835938 20.796875 C 32.839844 20.96875 32.839844 21.140625 32.835938 21.308594 C 32.84375 21.351562 32.847656 21.371094 32.84375 21.378906 C 32.839844 21.382812 32.835938 21.386719 32.835938 21.398438 C 32.835938 21.566406 32.839844 21.734375 32.847656 21.902344 C 32.859375 22.066406 32.863281 22.234375 32.863281 22.40625 L 32.863281 23.300781 C 32.863281 23.492188 32.867188 23.683594 32.878906 23.871094 C 32.890625 24.058594 32.898438 24.25 32.898438 24.4375 C 32.898438 24.453125 32.886719 24.476562 32.863281 24.507812 C 32.855469 24.546875 32.839844 24.574219 32.824219 24.597656 C 32.78125 24.601562 32.742188 24.59375 32.707031 24.578125 C 32.6875 24.578125 32.675781 24.582031 32.667969 24.59375 C 32.660156 24.605469 32.652344 24.617188 32.636719 24.625 C 32.601562 24.625 32.570312 24.632812 32.546875 24.652344 C 32.523438 24.667969 32.496094 24.675781 32.464844 24.675781 C 32.4375 24.675781 32.414062 24.675781 32.386719 24.667969 C 32.363281 24.660156 32.332031 24.660156 32.300781 24.660156 C 32.292969 24.660156 32.277344 24.664062 32.257812 24.679688 C 32.242188 24.695312 32.226562 24.707031 32.21875 24.710938 C 32.195312 24.710938 32.175781 24.714844 32.15625 24.722656 C 32.140625 24.726562 32.117188 24.730469 32.09375 24.730469 C 32.074219 24.714844 32.0625 24.6875 32.0625 24.652344 C 32.066406 24.617188 32.050781 24.59375 32.019531 24.582031 C 32.019531 24.5625 32.019531 24.535156 32.023438 24.507812 C 32.023438 24.484375 32.027344 24.457031 32.027344 24.429688 C 32.027344 24.253906 32.023438 24.078125 32.011719 23.902344 C 32.003906 23.726562 31.996094 23.550781 31.992188 23.375 C 31.988281 23.296875 31.988281 23.222656 31.988281 23.148438 C 31.992188 23.074219 31.992188 23 31.992188 22.921875 C 31.992188 22.882812 31.992188 22.84375 31.992188 22.800781 C 31.992188 22.761719 31.988281 22.722656 31.976562 22.6875 C 31.953125 22.683594 31.925781 22.6875 31.90625 22.699219 C 31.886719 22.710938 31.863281 22.714844 31.84375 22.714844 C 31.746094 22.746094 31.679688 22.777344 31.648438 22.808594 C 31.621094 22.808594 31.601562 22.8125 31.582031 22.824219 C 31.5625 22.832031 31.542969 22.839844 31.519531 22.847656 C 31.484375 22.859375 31.445312 22.867188 31.414062 22.871094 C 31.378906 22.878906 31.34375 22.890625 31.308594 22.902344 C 31.285156 22.910156 31.261719 22.921875 31.238281 22.929688 C 31.214844 22.9375 31.191406 22.949219 31.167969 22.957031 C 31.117188 22.976562 31.070312 22.992188 31.019531 23.007812 C 30.96875 23.023438 30.917969 23.039062 30.867188 23.058594 C 30.816406 23.066406 30.773438 23.078125 30.738281 23.097656 C 30.699219 23.117188 30.664062 23.132812 30.628906 23.152344 C 30.59375 23.363281 30.578125 23.5625 30.578125 23.753906 C 30.574219 23.945312 30.578125 24.132812 30.59375 24.320312 C 30.585938 24.347656 30.578125 24.378906 30.578125 24.414062 C 30.578125 24.445312 30.574219 24.472656 30.558594 24.496094 C 30.507812 24.511719 30.476562 24.511719 30.460938 24.5 C 30.445312 24.488281 30.425781 24.480469 30.410156 24.46875 C 30.390625 24.472656 30.375 24.484375 30.363281 24.496094 C 30.351562 24.511719 30.34375 24.519531 30.332031 24.53125 C 30.296875 24.53125 30.265625 24.539062 30.246094 24.554688 C 30.226562 24.570312 30.207031 24.582031 30.1875 24.589844 C 30.175781 24.59375 30.160156 24.59375 30.148438 24.589844 C 30.132812 24.585938 30.117188 24.589844 30.097656 24.597656 C 30.054688 24.597656 30.03125 24.59375 30.035156 24.582031 C 30.035156 24.570312 30.03125 24.5625 30.019531 24.5625 C 30 24.5625 29.988281 24.570312 29.980469 24.585938 C 29.972656 24.601562 29.960938 24.617188 29.941406 24.625 C 29.925781 24.632812 29.902344 24.640625 29.878906 24.640625 C 29.859375 24.644531 29.835938 24.648438 29.8125 24.660156 C 29.789062 24.636719 29.777344 24.609375 29.777344 24.582031 C 29.777344 24.558594 29.765625 24.53125 29.742188 24.507812 C 29.734375 24.445312 29.730469 24.386719 29.726562 24.324219 C 29.722656 24.265625 29.714844 24.203125 29.703125 24.140625 C 29.710938 24.015625 29.714844 23.914062 29.710938 23.835938 C 29.710938 23.761719 29.710938 23.683594 29.710938 23.601562 C 29.710938 23.53125 29.707031 23.457031 29.703125 23.386719 C 29.699219 23.316406 29.691406 23.242188 29.6875 23.171875 C 29.679688 23.042969 29.671875 22.910156 29.664062 22.777344 C 29.65625 22.640625 29.652344 22.507812 29.652344 22.371094 C 29.652344 22.261719 29.660156 22.152344 29.671875 22.042969 C 29.683594 21.933594 29.6875 21.824219 29.6875 21.714844 C 29.6875 21.636719 29.6875 21.5625 29.691406 21.488281 C 29.695312 21.414062 29.695312 21.339844 29.695312 21.261719 C 29.695312 21.199219 29.695312 21.140625 29.691406 21.078125 C 29.6875 21.019531 29.6875 20.957031 29.6875 20.898438 C 29.6875 20.832031 29.691406 20.765625 29.703125 20.699219 C 29.710938 20.636719 29.714844 20.570312 29.714844 20.507812 C 29.714844 20.433594 29.710938 20.359375 29.703125 20.285156 C 29.691406 20.210938 29.6875 20.136719 29.6875 20.058594 C 29.6875 20.039062 29.691406 20.015625 29.695312 19.996094 C 29.699219 19.976562 29.703125 19.953125 29.703125 19.929688 C 29.699219 19.882812 29.699219 19.851562 29.710938 19.839844 C 29.71875 19.828125 29.726562 19.816406 29.738281 19.796875 C 29.757812 19.792969 29.785156 19.785156 29.8125 19.777344 C 29.839844 19.769531 29.863281 19.769531 29.886719 19.777344 C 29.914062 19.75 29.953125 19.738281 30 19.738281 C 30.050781 19.738281 30.082031 19.722656 30.105469 19.6875 C 30.136719 19.695312 30.160156 19.695312 30.171875 19.691406 C 30.183594 19.691406 30.195312 19.6875 30.203125 19.6875 C 30.246094 19.699219 30.265625 19.695312 30.269531 19.6875 C 30.269531 19.675781 30.277344 19.667969 30.292969 19.667969 C 30.316406 19.667969 30.351562 19.671875 30.398438 19.671875 C 30.445312 19.675781 30.480469 19.683594 30.5 19.703125 C 30.542969 19.941406 30.566406 20.183594 30.574219 20.429688 C 30.578125 20.675781 30.578125 20.921875 30.578125 21.164062 C 30.578125 21.226562 30.582031 21.289062 30.585938 21.355469 C 30.589844 21.417969 30.589844 21.484375 30.578125 21.546875 C 30.578125 21.570312 30.578125 21.597656 30.574219 21.621094 C 30.566406 21.648438 30.566406 21.671875 30.566406 21.699219 C 30.566406 21.777344 30.5625 21.855469 30.554688 21.9375 C 30.542969 22.019531 30.539062 22.101562 30.539062 22.175781 C 30.59375 22.207031 30.640625 22.21875 30.679688 22.207031 C 30.71875 22.195312 30.753906 22.183594 30.792969 22.171875 C 30.839844 22.15625 30.878906 22.140625 30.917969 22.125 C 30.957031 22.109375 30.996094 22.097656 31.039062 22.082031 C 31.074219 22.066406 31.117188 22.050781 31.160156 22.039062 C 31.203125 22.027344 31.242188 22.019531 31.277344 22.007812 C 31.398438 21.96875 31.515625 21.917969 31.628906 21.863281 C 31.742188 21.804688 31.859375 21.753906 31.976562 21.71875 C 31.96875 21.472656 31.964844 21.226562 31.964844 20.984375 C 31.964844 20.738281 31.964844 20.496094 31.964844 20.253906 C 31.964844 20.1875 31.964844 20.117188 31.964844 20.046875 C 31.964844 19.972656 31.96875 19.90625 31.976562 19.835938 C 31.984375 19.820312 31.988281 19.804688 31.996094 19.792969 C 32.003906 19.78125 32.007812 19.765625 32.007812 19.742188 C 32.019531 19.71875 32.035156 19.703125 32.054688 19.695312 C 32.074219 19.6875 32.085938 19.671875 32.09375 19.65625 C 32.105469 19.664062 32.113281 19.671875 32.125 19.679688 C 32.136719 19.6875 32.148438 19.691406 32.164062 19.695312 C 32.199219 19.6875 32.222656 19.679688 32.226562 19.675781 C 32.234375 19.671875 32.246094 19.667969 32.253906 19.664062 C 32.277344 19.652344 32.304688 19.648438 32.34375 19.648438 C 32.378906 19.648438 32.410156 19.648438 32.433594 19.648438 Z M 37.03125 21.976562 C 37.023438 21.992188 37.011719 22.011719 37.003906 22.027344 C 36.996094 22.042969 36.988281 22.058594 36.984375 22.078125 C 37.003906 22.09375 37.019531 22.113281 37.035156 22.132812 C 37.050781 22.152344 37.058594 22.175781 37.058594 22.199219 C 37.058594 22.214844 37.054688 22.230469 37.050781 22.246094 C 37.042969 22.261719 37.042969 22.277344 37.046875 22.292969 C 37.027344 22.324219 37.007812 22.351562 36.988281 22.378906 C 36.96875 22.40625 36.953125 22.433594 36.941406 22.464844 C 36.925781 22.484375 36.910156 22.5 36.898438 22.519531 C 36.886719 22.539062 36.875 22.554688 36.867188 22.574219 C 36.84375 22.582031 36.828125 22.597656 36.824219 22.617188 C 36.816406 22.636719 36.804688 22.65625 36.785156 22.667969 C 36.78125 22.6875 36.757812 22.726562 36.714844 22.796875 C 36.675781 22.863281 36.628906 22.933594 36.578125 23.011719 C 36.527344 23.085938 36.480469 23.160156 36.4375 23.234375 C 36.390625 23.304688 36.355469 23.351562 36.339844 23.375 C 36.332031 23.398438 36.320312 23.414062 36.308594 23.425781 C 36.296875 23.441406 36.285156 23.457031 36.269531 23.472656 C 36.261719 23.488281 36.253906 23.503906 36.25 23.519531 C 36.246094 23.535156 36.238281 23.546875 36.230469 23.554688 C 36.222656 23.574219 36.210938 23.589844 36.199219 23.601562 C 36.1875 23.617188 36.175781 23.632812 36.167969 23.65625 C 36.121094 23.714844 36.078125 23.785156 36.03125 23.863281 C 35.984375 23.945312 35.941406 24.015625 35.902344 24.078125 C 35.878906 24.117188 35.855469 24.152344 35.835938 24.1875 C 35.816406 24.222656 35.792969 24.257812 35.769531 24.292969 C 35.746094 24.332031 35.722656 24.363281 35.699219 24.394531 C 35.679688 24.425781 35.65625 24.460938 35.632812 24.496094 C 35.597656 24.523438 35.5625 24.554688 35.535156 24.59375 C 35.507812 24.632812 35.476562 24.664062 35.441406 24.691406 C 35.382812 24.691406 35.34375 24.664062 35.332031 24.613281 C 35.273438 24.597656 35.242188 24.597656 35.242188 24.613281 C 35.242188 24.625 35.242188 24.636719 35.242188 24.644531 C 35.222656 24.652344 35.210938 24.667969 35.203125 24.683594 C 35.199219 24.703125 35.183594 24.714844 35.167969 24.726562 C 35.128906 24.714844 35.097656 24.703125 35.074219 24.679688 C 35.050781 24.660156 35.015625 24.652344 34.96875 24.660156 C 34.949219 24.628906 34.929688 24.605469 34.90625 24.585938 C 34.882812 24.566406 34.863281 24.546875 34.84375 24.523438 C 34.835938 24.496094 34.824219 24.472656 34.804688 24.457031 C 34.789062 24.4375 34.777344 24.421875 34.761719 24.402344 C 34.75 24.378906 34.734375 24.359375 34.722656 24.339844 C 34.707031 24.324219 34.691406 24.304688 34.679688 24.289062 C 34.648438 24.246094 34.617188 24.207031 34.585938 24.171875 C 34.558594 24.132812 34.53125 24.09375 34.507812 24.050781 C 34.472656 24 34.4375 23.945312 34.402344 23.886719 C 34.367188 23.832031 34.332031 23.777344 34.296875 23.722656 C 34.277344 23.695312 34.257812 23.667969 34.242188 23.640625 C 34.222656 23.617188 34.207031 23.589844 34.191406 23.5625 C 34.183594 23.539062 34.171875 23.511719 34.15625 23.480469 C 34.140625 23.449219 34.121094 23.429688 34.097656 23.421875 C 34.089844 23.382812 34.070312 23.359375 34.050781 23.339844 C 34.027344 23.320312 34.003906 23.300781 33.980469 23.273438 C 33.949219 23.238281 33.917969 23.199219 33.890625 23.15625 C 33.863281 23.113281 33.835938 23.070312 33.808594 23.023438 C 33.71875 22.898438 33.632812 22.777344 33.550781 22.65625 C 33.472656 22.535156 33.394531 22.40625 33.316406 22.277344 C 33.339844 22.207031 33.351562 22.152344 33.351562 22.117188 C 33.351562 22.082031 33.363281 22.050781 33.382812 22.03125 C 33.382812 22.011719 33.390625 21.984375 33.398438 21.949219 C 33.457031 21.851562 33.515625 21.761719 33.570312 21.679688 C 33.621094 21.605469 33.65625 21.539062 33.675781 21.492188 C 33.695312 21.441406 33.71875 21.390625 33.742188 21.335938 C 33.761719 21.324219 33.78125 21.304688 33.796875 21.285156 C 33.808594 21.265625 33.828125 21.246094 33.851562 21.230469 C 33.859375 21.179688 33.878906 21.136719 33.910156 21.105469 C 33.945312 21.070312 33.964844 21.03125 33.972656 20.980469 C 34.015625 20.949219 34.039062 20.914062 34.042969 20.875 C 34.101562 20.832031 34.136719 20.777344 34.152344 20.710938 C 34.1875 20.675781 34.21875 20.636719 34.246094 20.589844 C 34.269531 20.546875 34.292969 20.5 34.316406 20.449219 C 34.371094 20.402344 34.414062 20.347656 34.445312 20.273438 C 34.472656 20.257812 34.496094 20.230469 34.507812 20.199219 C 34.523438 20.167969 34.539062 20.140625 34.5625 20.121094 C 34.601562 20.0625 34.628906 20.011719 34.648438 19.976562 C 34.667969 19.9375 34.691406 19.898438 34.714844 19.855469 C 34.746094 19.855469 34.765625 19.847656 34.777344 19.824219 C 34.785156 19.800781 34.804688 19.792969 34.832031 19.796875 C 34.832031 19.757812 34.84375 19.722656 34.867188 19.6875 C 34.875 19.683594 34.886719 19.679688 34.90625 19.671875 C 34.925781 19.667969 34.933594 19.660156 34.933594 19.648438 C 34.925781 19.59375 34.925781 19.5625 34.941406 19.554688 C 34.953125 19.546875 34.964844 19.535156 34.976562 19.527344 C 35.027344 19.535156 35.058594 19.542969 35.078125 19.546875 C 35.097656 19.554688 35.125 19.570312 35.167969 19.59375 C 35.210938 19.59375 35.246094 19.605469 35.261719 19.621094 C 35.28125 19.640625 35.300781 19.652344 35.324219 19.664062 C 35.34375 19.679688 35.359375 19.699219 35.371094 19.714844 C 35.382812 19.734375 35.398438 19.746094 35.421875 19.757812 C 35.457031 19.804688 35.496094 19.859375 35.535156 19.917969 C 35.578125 19.976562 35.617188 20.03125 35.652344 20.078125 C 35.703125 20.148438 35.753906 20.210938 35.808594 20.269531 C 35.859375 20.332031 35.910156 20.398438 35.957031 20.46875 C 35.96875 20.492188 35.996094 20.53125 36.03125 20.585938 C 36.066406 20.644531 36.109375 20.703125 36.15625 20.765625 C 36.199219 20.828125 36.242188 20.886719 36.277344 20.9375 C 36.316406 20.988281 36.339844 21.019531 36.351562 21.027344 C 36.367188 21.050781 36.398438 21.09375 36.441406 21.15625 C 36.488281 21.21875 36.539062 21.285156 36.589844 21.355469 C 36.640625 21.421875 36.695312 21.488281 36.746094 21.550781 C 36.792969 21.613281 36.828125 21.65625 36.847656 21.671875 C 36.898438 21.738281 36.933594 21.792969 36.960938 21.835938 C 36.984375 21.878906 37.007812 21.925781 37.03125 21.976562 Z M 35.460938 23.238281 C 35.511719 23.171875 35.550781 23.113281 35.578125 23.058594 C 35.605469 23.003906 35.632812 22.949219 35.660156 22.894531 C 35.707031 22.84375 35.734375 22.804688 35.742188 22.78125 C 35.75 22.757812 35.761719 22.738281 35.777344 22.714844 C 35.8125 22.660156 35.851562 22.605469 35.890625 22.554688 C 35.929688 22.5 35.960938 22.441406 35.984375 22.378906 C 36.011719 22.359375 36.03125 22.339844 36.046875 22.3125 C 36.058594 22.285156 36.078125 22.257812 36.105469 22.238281 C 36.078125 22.144531 36.046875 22.070312 36.011719 22.019531 C 35.972656 21.96875 35.9375 21.917969 35.902344 21.867188 C 35.886719 21.84375 35.871094 21.824219 35.859375 21.800781 C 35.847656 21.777344 35.832031 21.753906 35.816406 21.734375 C 35.800781 21.71875 35.785156 21.707031 35.773438 21.691406 C 35.761719 21.679688 35.75 21.667969 35.734375 21.652344 C 35.726562 21.628906 35.710938 21.601562 35.695312 21.566406 C 35.675781 21.542969 35.65625 21.523438 35.640625 21.503906 C 35.621094 21.488281 35.605469 21.464844 35.589844 21.4375 C 35.574219 21.417969 35.550781 21.394531 35.523438 21.363281 C 35.496094 21.332031 35.46875 21.296875 35.4375 21.261719 C 35.40625 21.222656 35.382812 21.183594 35.359375 21.152344 C 35.335938 21.117188 35.316406 21.089844 35.304688 21.066406 C 35.292969 21.046875 35.285156 21.027344 35.28125 21.011719 C 35.273438 20.996094 35.265625 20.976562 35.257812 20.960938 C 35.234375 20.929688 35.210938 20.902344 35.1875 20.875 C 35.164062 20.851562 35.140625 20.824219 35.117188 20.792969 C 35.105469 20.800781 35.09375 20.804688 35.082031 20.808594 C 35.070312 20.8125 35.058594 20.816406 35.050781 20.828125 C 35.019531 20.882812 34.984375 20.9375 34.945312 20.988281 C 34.90625 21.035156 34.867188 21.089844 34.832031 21.148438 C 34.796875 21.203125 34.765625 21.257812 34.734375 21.3125 C 34.703125 21.371094 34.671875 21.425781 34.640625 21.476562 C 34.617188 21.507812 34.59375 21.539062 34.574219 21.570312 C 34.554688 21.597656 34.53125 21.628906 34.507812 21.667969 C 34.484375 21.699219 34.464844 21.730469 34.449219 21.765625 C 34.433594 21.796875 34.414062 21.828125 34.390625 21.863281 C 34.355469 21.90625 34.324219 21.945312 34.300781 21.980469 C 34.28125 22.015625 34.257812 22.058594 34.234375 22.109375 C 34.246094 22.136719 34.269531 22.171875 34.300781 22.222656 C 34.328125 22.269531 34.359375 22.316406 34.390625 22.363281 C 34.425781 22.410156 34.453125 22.453125 34.476562 22.492188 C 34.503906 22.53125 34.519531 22.558594 34.523438 22.574219 C 34.558594 22.605469 34.589844 22.640625 34.613281 22.679688 C 34.632812 22.714844 34.664062 22.753906 34.699219 22.789062 C 34.71875 22.824219 34.738281 22.855469 34.761719 22.882812 C 34.785156 22.910156 34.808594 22.9375 34.832031 22.96875 C 34.855469 23 34.882812 23.046875 34.921875 23.109375 C 34.957031 23.167969 34.992188 23.230469 35.03125 23.292969 C 35.066406 23.355469 35.101562 23.414062 35.140625 23.46875 C 35.175781 23.523438 35.207031 23.554688 35.226562 23.570312 C 35.273438 23.519531 35.3125 23.464844 35.339844 23.402344 C 35.371094 23.34375 35.410156 23.289062 35.460938 23.238281 Z M 38.03125 19.757812 C 38.050781 19.75 38.066406 19.746094 38.078125 19.738281 C 38.09375 19.726562 38.109375 19.722656 38.128906 19.722656 C 38.140625 19.726562 38.152344 19.738281 38.160156 19.75 C 38.167969 19.761719 38.175781 19.773438 38.191406 19.785156 C 38.203125 19.773438 38.214844 19.765625 38.226562 19.757812 C 38.238281 19.746094 38.253906 19.742188 38.265625 19.738281 C 38.3125 19.75 38.335938 19.773438 38.339844 19.804688 C 38.363281 19.8125 38.382812 19.824219 38.402344 19.832031 C 38.421875 19.84375 38.441406 19.851562 38.464844 19.855469 C 38.472656 19.875 38.484375 19.890625 38.5 19.898438 C 38.511719 19.90625 38.527344 19.917969 38.546875 19.9375 C 38.59375 19.949219 38.652344 19.972656 38.730469 20.011719 C 38.804688 20.054688 38.863281 20.085938 38.910156 20.105469 C 38.957031 20.128906 39 20.152344 39.046875 20.171875 C 39.09375 20.195312 39.136719 20.21875 39.179688 20.246094 C 39.21875 20.269531 39.261719 20.296875 39.300781 20.324219 C 39.34375 20.355469 39.386719 20.378906 39.429688 20.394531 C 39.472656 20.445312 39.523438 20.476562 39.589844 20.488281 C 39.652344 20.503906 39.710938 20.527344 39.761719 20.5625 C 39.800781 20.585938 39.839844 20.609375 39.878906 20.632812 C 39.914062 20.660156 39.949219 20.683594 39.988281 20.707031 C 40 20.726562 40.019531 20.746094 40.039062 20.757812 C 40.058594 20.773438 40.078125 20.789062 40.097656 20.8125 C 40.1875 20.863281 40.242188 20.898438 40.253906 20.925781 C 40.269531 20.9375 40.289062 20.949219 40.316406 20.964844 C 40.34375 20.984375 40.371094 21.003906 40.398438 21.023438 C 40.425781 21.042969 40.449219 21.066406 40.472656 21.085938 C 40.496094 21.105469 40.511719 21.125 40.515625 21.140625 C 40.496094 21.183594 40.488281 21.214844 40.488281 21.238281 C 40.488281 21.265625 40.476562 21.285156 40.460938 21.300781 C 40.488281 21.339844 40.5 21.371094 40.5 21.402344 C 40.480469 21.457031 40.441406 21.503906 40.382812 21.539062 C 40.371094 21.574219 40.347656 21.601562 40.320312 21.621094 C 40.289062 21.640625 40.269531 21.671875 40.261719 21.707031 C 40.222656 21.730469 40.203125 21.746094 40.195312 21.761719 C 40.1875 21.773438 40.179688 21.789062 40.171875 21.800781 C 40.085938 21.890625 40.003906 21.96875 39.929688 22.03125 C 39.851562 22.097656 39.785156 22.167969 39.71875 22.246094 C 39.675781 22.265625 39.636719 22.292969 39.601562 22.328125 C 39.570312 22.363281 39.539062 22.398438 39.515625 22.4375 C 39.476562 22.472656 39.441406 22.507812 39.40625 22.542969 C 39.375 22.578125 39.339844 22.609375 39.300781 22.640625 C 39.292969 22.660156 39.277344 22.671875 39.257812 22.683594 C 39.234375 22.695312 39.222656 22.710938 39.210938 22.734375 C 39.160156 22.757812 39.121094 22.789062 39.089844 22.828125 C 39.054688 22.871094 39.019531 22.902344 38.972656 22.929688 L 38.925781 22.996094 C 38.910156 23.007812 38.890625 23.019531 38.867188 23.039062 C 38.839844 23.0625 38.816406 23.082031 38.789062 23.109375 C 38.765625 23.132812 38.742188 23.15625 38.722656 23.179688 C 38.707031 23.203125 38.695312 23.21875 38.691406 23.234375 C 38.675781 23.238281 38.65625 23.25 38.625 23.273438 C 38.597656 23.296875 38.566406 23.320312 38.535156 23.347656 C 38.507812 23.375 38.480469 23.402344 38.453125 23.425781 C 38.429688 23.453125 38.414062 23.472656 38.410156 23.480469 L 38.339844 23.527344 C 38.347656 23.648438 38.347656 23.773438 38.351562 23.894531 C 38.355469 24.019531 38.355469 24.140625 38.355469 24.261719 L 38.355469 24.488281 L 38.308594 24.550781 C 38.285156 24.550781 38.265625 24.546875 38.253906 24.535156 C 38.238281 24.527344 38.222656 24.523438 38.203125 24.523438 C 38.1875 24.523438 38.167969 24.53125 38.152344 24.550781 C 38.136719 24.566406 38.121094 24.582031 38.109375 24.589844 C 38.078125 24.59375 38.050781 24.601562 38.03125 24.613281 C 38.007812 24.625 37.988281 24.636719 37.964844 24.644531 C 37.9375 24.628906 37.910156 24.625 37.882812 24.625 C 37.820312 24.636719 37.792969 24.640625 37.796875 24.628906 C 37.796875 24.621094 37.789062 24.617188 37.765625 24.617188 C 37.730469 24.652344 37.707031 24.671875 37.695312 24.671875 C 37.679688 24.671875 37.660156 24.671875 37.644531 24.675781 C 37.628906 24.683594 37.613281 24.683594 37.59375 24.683594 C 37.574219 24.648438 37.558594 24.613281 37.550781 24.574219 C 37.539062 24.535156 37.515625 24.5 37.484375 24.460938 C 37.496094 24.417969 37.496094 24.386719 37.476562 24.367188 C 37.503906 24.320312 37.515625 24.261719 37.511719 24.199219 C 37.507812 24.136719 37.503906 24.078125 37.503906 24.027344 C 37.503906 23.996094 37.503906 23.964844 37.507812 23.933594 C 37.511719 23.90625 37.511719 23.878906 37.511719 23.851562 C 37.511719 23.796875 37.507812 23.742188 37.496094 23.6875 C 37.488281 23.628906 37.484375 23.574219 37.484375 23.515625 C 37.484375 23.378906 37.488281 23.246094 37.496094 23.109375 C 37.507812 22.972656 37.511719 22.835938 37.511719 22.703125 C 37.511719 22.625 37.507812 22.546875 37.5 22.464844 C 37.496094 22.386719 37.492188 22.308594 37.492188 22.230469 C 37.492188 22.179688 37.492188 22.136719 37.496094 22.09375 C 37.5 22.050781 37.507812 22.007812 37.511719 21.96875 C 37.511719 21.761719 37.515625 21.5625 37.523438 21.375 C 37.527344 21.183594 37.53125 20.992188 37.53125 20.804688 C 37.53125 20.742188 37.53125 20.683594 37.527344 20.628906 C 37.527344 20.570312 37.523438 20.511719 37.523438 20.449219 C 37.523438 20.417969 37.527344 20.386719 37.53125 20.355469 C 37.535156 20.324219 37.539062 20.292969 37.539062 20.261719 C 37.550781 20.121094 37.558594 19.984375 37.558594 19.84375 L 37.550781 19.738281 C 37.570312 19.710938 37.597656 19.695312 37.636719 19.695312 C 37.683594 19.695312 37.722656 19.710938 37.75 19.742188 C 37.785156 19.738281 37.8125 19.734375 37.84375 19.726562 C 37.875 19.71875 37.902344 19.714844 37.929688 19.714844 C 37.972656 19.714844 38.003906 19.730469 38.03125 19.757812 Z M 38.449219 20.804688 L 38.4375 20.828125 C 38.4375 20.847656 38.433594 20.863281 38.429688 20.875 C 38.425781 20.886719 38.421875 20.898438 38.417969 20.90625 C 38.417969 20.921875 38.417969 20.933594 38.417969 20.949219 C 38.421875 20.964844 38.425781 20.984375 38.425781 21 C 38.425781 21.105469 38.421875 21.207031 38.417969 21.308594 C 38.417969 21.40625 38.417969 21.507812 38.417969 21.605469 L 38.402344 21.960938 C 38.402344 21.984375 38.40625 22.007812 38.410156 22.035156 C 38.414062 22.0625 38.417969 22.085938 38.417969 22.109375 C 38.417969 22.132812 38.414062 22.15625 38.410156 22.175781 C 38.40625 22.199219 38.402344 22.222656 38.402344 22.246094 C 38.402344 22.300781 38.410156 22.359375 38.425781 22.417969 C 38.445312 22.410156 38.460938 22.394531 38.472656 22.375 C 38.480469 22.355469 38.492188 22.339844 38.503906 22.324219 C 38.609375 22.230469 38.710938 22.132812 38.800781 22.03125 C 38.890625 21.925781 38.984375 21.824219 39.082031 21.71875 C 39.164062 21.632812 39.234375 21.566406 39.292969 21.511719 C 39.355469 21.457031 39.398438 21.394531 39.429688 21.316406 C 39.351562 21.265625 39.273438 21.214844 39.191406 21.164062 C 39.109375 21.113281 39.023438 21.070312 38.929688 21.035156 C 38.925781 21.023438 38.914062 21.015625 38.894531 21 C 38.871094 20.988281 38.851562 20.976562 38.828125 20.964844 C 38.804688 20.953125 38.78125 20.941406 38.757812 20.933594 C 38.734375 20.925781 38.71875 20.921875 38.710938 20.921875 C 38.671875 20.882812 38.628906 20.863281 38.582031 20.851562 C 38.550781 20.851562 38.523438 20.847656 38.5 20.835938 C 38.476562 20.824219 38.460938 20.816406 38.449219 20.804688 Z M 38.449219 20.804688 "/>
</g>
<g clip-path="url(#clip3)" clip-rule="nonzero">
<path style=" stroke:none;fill-rule:nonzero;fill:rgb(100%,100%,100%);fill-opacity:1;" d="M 20.964844 26.339844 L 20.960938 26.167969 C 20.960938 26.152344 20.964844 26.144531 20.972656 26.144531 C 20.976562 26.144531 20.984375 26.160156 20.996094 26.195312 C 21.003906 26.226562 21.011719 26.28125 21.011719 26.355469 C 21.011719 26.425781 21.007812 26.476562 21.007812 26.503906 C 21.089844 26.488281 21.160156 26.480469 21.226562 26.480469 C 21.40625 26.480469 21.546875 26.527344 21.648438 26.621094 C 21.761719 26.71875 21.816406 26.851562 21.816406 27.019531 L 21.816406 27.03125 C 21.816406 27.066406 21.804688 27.082031 21.777344 27.082031 C 21.757812 27.082031 21.742188 27.078125 21.722656 27.066406 C 21.585938 26.984375 21.457031 26.914062 21.34375 26.851562 C 21.226562 26.792969 21.109375 26.742188 20.988281 26.707031 C 20.957031 26.980469 20.902344 27.269531 20.828125 27.570312 C 20.734375 27.914062 20.636719 28.191406 20.53125 28.402344 C 20.550781 28.402344 20.574219 28.40625 20.613281 28.40625 C 20.832031 28.40625 21.054688 28.347656 21.28125 28.238281 C 21.503906 28.125 21.675781 27.980469 21.789062 27.804688 L 21.816406 27.769531 C 21.820312 27.773438 21.820312 27.777344 21.820312 27.789062 C 21.820312 27.796875 21.816406 27.808594 21.8125 27.820312 C 21.695312 28.019531 21.5 28.183594 21.230469 28.320312 C 20.976562 28.445312 20.722656 28.511719 20.476562 28.515625 C 20.34375 28.742188 20.222656 28.859375 20.109375 28.859375 C 20.089844 28.859375 20.082031 28.851562 20.082031 28.839844 C 20.082031 28.828125 20.089844 28.820312 20.101562 28.820312 L 20.160156 28.808594 C 20.25 28.777344 20.34375 28.679688 20.441406 28.515625 C 20.234375 28.507812 20.070312 28.453125 19.949219 28.34375 C 19.828125 28.238281 19.769531 28.074219 19.769531 27.859375 C 19.769531 27.640625 19.855469 27.410156 20.027344 27.167969 C 20.203125 26.925781 20.402344 26.746094 20.632812 26.632812 C 20.578125 26.625 20.523438 26.625 20.46875 26.625 C 20.414062 26.625 20.335938 26.632812 20.238281 26.65625 C 20.140625 26.679688 20.050781 26.714844 19.972656 26.761719 C 19.855469 26.828125 19.796875 26.902344 19.796875 26.984375 C 19.796875 26.996094 19.800781 27.003906 19.800781 27.007812 L 19.800781 27.03125 C 19.800781 27.058594 19.792969 27.070312 19.773438 27.070312 C 19.75 27.070312 19.730469 27.054688 19.71875 27.023438 C 19.703125 26.988281 19.695312 26.957031 19.695312 26.933594 C 19.695312 26.816406 19.800781 26.726562 20.015625 26.664062 C 20.171875 26.621094 20.328125 26.597656 20.484375 26.597656 C 20.527344 26.597656 20.589844 26.601562 20.675781 26.613281 C 20.789062 26.5625 20.882812 26.53125 20.960938 26.515625 C 20.964844 26.472656 20.964844 26.414062 20.964844 26.339844 Z M 19.933594 27.796875 C 19.933594 27.976562 19.984375 28.113281 20.085938 28.214844 C 20.1875 28.324219 20.324219 28.386719 20.503906 28.398438 C 20.613281 28.175781 20.707031 27.910156 20.785156 27.597656 C 20.867188 27.285156 20.921875 26.984375 20.949219 26.695312 C 20.871094 26.671875 20.785156 26.652344 20.691406 26.636719 C 20.46875 26.742188 20.292969 26.898438 20.152344 27.117188 C 20.007812 27.335938 19.933594 27.5625 19.933594 27.796875 Z M 21.699219 26.917969 C 21.714844 26.917969 21.722656 26.910156 21.722656 26.890625 C 21.722656 26.871094 21.714844 26.847656 21.703125 26.820312 C 21.652344 26.730469 21.566406 26.664062 21.453125 26.621094 C 21.34375 26.578125 21.226562 26.554688 21.109375 26.554688 C 21.085938 26.554688 21.050781 26.558594 21 26.5625 L 20.992188 26.660156 C 21.226562 26.710938 21.449219 26.789062 21.660156 26.90625 C 21.679688 26.914062 21.695312 26.917969 21.699219 26.917969 Z M 20.957031 26.5625 C 20.871094 26.578125 20.800781 26.597656 20.738281 26.621094 C 20.878906 26.640625 20.949219 26.652344 20.953125 26.652344 C 20.957031 26.632812 20.957031 26.605469 20.957031 26.5625 Z M 22.523438 26.742188 C 22.507812 26.75 22.488281 26.765625 22.46875 26.785156 C 22.097656 27.464844 21.910156 27.898438 21.910156 28.09375 C 21.910156 28.160156 21.933594 28.191406 21.976562 28.191406 C 22.035156 28.191406 22.113281 28.148438 22.214844 28.0625 C 22.230469 28.046875 22.242188 28.039062 22.25 28.03125 C 22.253906 28.023438 22.257812 28.023438 22.257812 28.023438 C 22.265625 28.023438 22.269531 28.023438 22.269531 28.03125 C 22.269531 28.039062 22.265625 28.046875 22.257812 28.058594 C 22.167969 28.179688 22.078125 28.242188 21.984375 28.242188 C 21.882812 28.242188 21.832031 28.1875 21.832031 28.085938 C 21.832031 27.980469 21.882812 27.792969 21.988281 27.519531 C 21.9375 27.585938 21.902344 27.621094 21.882812 27.621094 C 21.875 27.621094 21.871094 27.617188 21.871094 27.613281 C 21.871094 27.609375 21.898438 27.574219 21.953125 27.503906 C 22.003906 27.4375 22.035156 27.398438 22.039062 27.390625 C 22.101562 27.214844 22.195312 27 22.320312 26.75 C 22.445312 26.503906 22.53125 26.335938 22.578125 26.253906 C 22.59375 26.21875 22.625 26.203125 22.675781 26.203125 C 22.730469 26.203125 22.753906 26.210938 22.753906 26.222656 C 22.753906 26.238281 22.675781 26.410156 22.523438 26.742188 Z M 22.792969 27.835938 C 22.796875 27.835938 22.800781 27.835938 22.800781 27.839844 C 22.800781 27.875 22.746094 27.949219 22.632812 28.0625 C 22.546875 28.152344 22.476562 28.195312 22.429688 28.195312 C 22.328125 28.195312 22.277344 28.144531 22.277344 28.042969 C 22.277344 27.96875 22.296875 27.875 22.335938 27.757812 L 22.285156 27.839844 C 22.257812 27.886719 22.238281 27.90625 22.230469 27.90625 C 22.226562 27.90625 22.222656 27.902344 22.222656 27.890625 C 22.222656 27.878906 22.238281 27.855469 22.269531 27.816406 C 22.296875 27.777344 22.34375 27.695312 22.402344 27.570312 C 22.417969 27.53125 22.4375 27.484375 22.46875 27.433594 C 22.476562 27.414062 22.5 27.40625 22.539062 27.40625 C 22.574219 27.40625 22.59375 27.414062 22.59375 27.4375 C 22.59375 27.457031 22.585938 27.484375 22.5625 27.523438 C 22.542969 27.5625 22.527344 27.585938 22.511719 27.59375 C 22.40625 27.796875 22.355469 27.949219 22.355469 28.046875 C 22.355469 28.109375 22.378906 28.144531 22.421875 28.144531 C 22.496094 28.144531 22.574219 28.09375 22.660156 27.988281 C 22.699219 27.949219 22.71875 27.921875 22.726562 27.914062 C 22.734375 27.90625 22.742188 27.894531 22.75 27.886719 C 22.761719 27.875 22.765625 27.867188 22.773438 27.863281 C 22.78125 27.851562 22.789062 27.84375 22.792969 27.835938 Z M 22.699219 27.03125 C 22.746094 27.007812 22.773438 27 22.78125 27 C 22.792969 27 22.796875 27.003906 22.796875 27.007812 C 22.796875 27.011719 22.773438 27.039062 22.726562 27.089844 L 22.683594 27.183594 C 22.664062 27.222656 22.640625 27.242188 22.613281 27.242188 C 22.574219 27.242188 22.550781 27.222656 22.550781 27.179688 C 22.550781 27.160156 22.566406 27.136719 22.59375 27.105469 C 22.621094 27.074219 22.65625 27.050781 22.699219 27.03125 Z M 23.496094 27.445312 C 23.496094 27.480469 23.488281 27.523438 23.46875 27.570312 C 23.453125 27.617188 23.433594 27.644531 23.40625 27.644531 C 23.382812 27.644531 23.367188 27.628906 23.367188 27.597656 C 23.367188 27.585938 23.375 27.558594 23.386719 27.519531 C 23.398438 27.476562 23.40625 27.441406 23.40625 27.414062 C 23.40625 27.324219 23.371094 27.28125 23.296875 27.28125 C 23.261719 27.28125 23.214844 27.296875 23.160156 27.324219 C 23.105469 27.351562 23.074219 27.367188 23.070312 27.367188 C 23.0625 27.367188 23.058594 27.363281 23.058594 27.359375 C 23.058594 27.332031 23.09375 27.304688 23.164062 27.285156 C 23.234375 27.261719 23.289062 27.25 23.332031 27.25 C 23.441406 27.25 23.496094 27.316406 23.496094 27.445312 Z M 22.941406 28.324219 C 22.800781 28.324219 22.734375 28.246094 22.734375 28.09375 C 22.734375 27.9375 22.789062 27.777344 22.898438 27.601562 C 23.011719 27.429688 23.136719 27.34375 23.28125 27.34375 C 23.304688 27.34375 23.316406 27.347656 23.316406 27.355469 C 23.316406 27.359375 23.296875 27.375 23.257812 27.398438 C 23.15625 27.460938 23.066406 27.550781 22.988281 27.675781 C 22.910156 27.800781 22.867188 27.914062 22.867188 28.015625 C 22.867188 28.175781 22.929688 28.257812 23.054688 28.257812 C 23.128906 28.257812 23.210938 28.226562 23.300781 28.171875 C 23.425781 28.089844 23.523438 27.996094 23.597656 27.882812 C 23.617188 27.851562 23.628906 27.839844 23.640625 27.839844 L 23.644531 27.84375 C 23.644531 27.851562 23.636719 27.871094 23.617188 27.894531 C 23.546875 28.003906 23.445312 28.101562 23.3125 28.191406 C 23.179688 28.28125 23.054688 28.324219 22.941406 28.324219 Z M 24.433594 28.316406 C 24.472656 28.316406 24.507812 28.300781 24.539062 28.273438 C 24.566406 28.246094 24.585938 28.234375 24.589844 28.234375 C 24.59375 28.234375 24.597656 28.234375 24.597656 28.242188 C 24.597656 28.246094 24.597656 28.257812 24.59375 28.269531 C 24.542969 28.34375 24.476562 28.382812 24.390625 28.382812 C 24.304688 28.382812 24.203125 28.335938 24.09375 28.242188 C 23.984375 28.148438 23.894531 28.050781 23.816406 27.945312 L 23.703125 28.128906 C 23.65625 28.203125 23.609375 28.257812 23.5625 28.296875 C 23.546875 28.339844 23.515625 28.363281 23.46875 28.363281 C 23.449219 28.363281 23.4375 28.355469 23.4375 28.339844 C 23.4375 28.285156 23.496094 28.109375 23.613281 27.816406 L 23.554688 27.820312 C 23.542969 27.820312 23.535156 27.820312 23.535156 27.816406 C 23.535156 27.789062 23.566406 27.773438 23.628906 27.769531 C 23.738281 27.503906 23.8125 27.332031 23.847656 27.25 C 23.753906 27.296875 23.6875 27.324219 23.648438 27.324219 C 23.640625 27.324219 23.636719 27.320312 23.636719 27.3125 C 23.636719 27.292969 23.652344 27.277344 23.679688 27.265625 C 23.683594 27.265625 23.691406 27.261719 23.703125 27.257812 C 23.773438 27.226562 23.832031 27.191406 23.886719 27.152344 L 24.230469 26.402344 C 24.25 26.359375 24.296875 26.335938 24.371094 26.335938 C 24.410156 26.335938 24.429688 26.347656 24.429688 26.367188 C 24.429688 26.375 24.417969 26.402344 24.402344 26.449219 C 24.34375 26.605469 24.25 26.785156 24.117188 26.992188 C 24.070312 27.050781 24.035156 27.097656 24.019531 27.136719 C 23.988281 27.195312 23.953125 27.261719 23.914062 27.335938 C 23.875 27.414062 23.808594 27.554688 23.710938 27.757812 C 23.753906 27.722656 23.78125 27.703125 23.792969 27.703125 C 23.808594 27.703125 23.820312 27.714844 23.832031 27.734375 C 23.867188 27.726562 23.894531 27.714844 23.921875 27.703125 C 23.925781 27.6875 23.953125 27.640625 24.003906 27.554688 C 24.054688 27.472656 24.109375 27.394531 24.175781 27.324219 C 24.269531 27.222656 24.347656 27.167969 24.410156 27.167969 C 24.472656 27.167969 24.503906 27.234375 24.503906 27.367188 C 24.503906 27.53125 24.320312 27.65625 23.953125 27.738281 C 23.941406 27.761719 23.921875 27.792969 23.890625 27.835938 C 23.953125 27.945312 24.027344 28.042969 24.117188 28.136719 C 24.234375 28.253906 24.339844 28.316406 24.433594 28.316406 Z M 24.355469 27.347656 C 24.355469 27.292969 24.34375 27.265625 24.316406 27.265625 C 24.273438 27.265625 24.1875 27.363281 24.058594 27.554688 L 23.980469 27.6875 C 24.230469 27.597656 24.355469 27.484375 24.355469 27.347656 Z M 23.796875 27.914062 C 23.773438 27.875 23.753906 27.835938 23.734375 27.792969 L 23.699219 27.792969 C 23.664062 27.882812 23.621094 28.03125 23.578125 28.234375 C 23.648438 28.152344 23.722656 28.046875 23.796875 27.914062 Z M 26.15625 27.289062 C 26.15625 27.320312 25.984375 27.386719 25.644531 27.480469 C 25.554688 27.652344 25.496094 27.761719 25.476562 27.808594 C 25.425781 27.929688 25.398438 28.050781 25.398438 28.160156 C 25.398438 28.226562 25.421875 28.257812 25.464844 28.257812 C 25.519531 28.257812 25.589844 28.222656 25.679688 28.148438 L 25.816406 28.03125 C 25.820312 28.03125 25.824219 28.035156 25.824219 28.039062 C 25.824219 28.046875 25.820312 28.054688 25.816406 28.066406 C 25.785156 28.113281 25.730469 28.167969 25.652344 28.226562 C 25.578125 28.285156 25.515625 28.3125 25.472656 28.3125 C 25.371094 28.3125 25.320312 28.253906 25.320312 28.132812 C 25.320312 28.046875 25.34375 27.9375 25.386719 27.808594 C 25.367188 27.753906 25.328125 27.714844 25.265625 27.6875 C 25.246094 27.679688 25.222656 27.667969 25.183594 27.65625 C 25.148438 27.640625 25.117188 27.628906 25.097656 27.621094 C 25.074219 27.609375 25.0625 27.589844 25.0625 27.558594 C 25.0625 27.527344 25.078125 27.507812 25.105469 27.503906 L 25.1875 27.503906 C 25.292969 27.503906 25.402344 27.492188 25.523438 27.46875 L 25.8125 26.832031 C 25.828125 26.796875 25.859375 26.777344 25.914062 26.777344 C 25.96875 26.777344 25.996094 26.789062 25.996094 26.808594 C 25.996094 26.8125 25.957031 26.898438 25.882812 27.058594 C 25.804688 27.222656 25.765625 27.308594 25.753906 27.316406 L 25.703125 27.363281 L 25.667969 27.4375 C 25.714844 27.421875 25.863281 27.371094 26.109375 27.289062 C 26.128906 27.285156 26.140625 27.28125 26.148438 27.28125 C 26.152344 27.28125 26.15625 27.285156 26.15625 27.289062 Z M 25.5 27.519531 C 25.390625 27.542969 25.289062 27.5625 25.195312 27.578125 C 25.300781 27.632812 25.367188 27.695312 25.398438 27.765625 C 25.417969 27.710938 25.453125 27.628906 25.5 27.519531 Z M 26.621094 27.660156 L 26.632812 27.605469 C 26.632812 27.574219 26.621094 27.546875 26.601562 27.527344 C 26.578125 27.503906 26.554688 27.496094 26.527344 27.496094 C 26.5 27.734375 26.441406 27.921875 26.347656 28.050781 L 26.441406 28.050781 C 26.414062 28.066406 26.394531 28.074219 26.382812 28.074219 C 26.371094 28.074219 26.359375 28.070312 26.355469 28.070312 C 26.351562 28.066406 26.34375 28.066406 26.339844 28.066406 C 26.339844 28.070312 26.335938 28.074219 26.320312 28.085938 C 26.308594 28.097656 26.269531 28.128906 26.207031 28.183594 C 26.144531 28.234375 26.085938 28.261719 26.035156 28.261719 C 25.953125 28.261719 25.914062 28.214844 25.914062 28.113281 C 25.914062 27.992188 25.960938 27.871094 26.054688 27.742188 C 26.023438 27.667969 26.007812 27.585938 26.007812 27.5 C 26.007812 27.414062 26.023438 27.339844 26.058594 27.277344 C 26.125 27.152344 26.207031 27.089844 26.304688 27.089844 C 26.429688 27.089844 26.503906 27.195312 26.523438 27.402344 C 26.625 27.40625 26.675781 27.457031 26.675781 27.558594 C 26.675781 27.636719 26.660156 27.679688 26.632812 27.679688 C 26.625 27.679688 26.621094 27.671875 26.621094 27.660156 Z M 26.308594 27.152344 C 26.242188 27.152344 26.183594 27.214844 26.128906 27.339844 C 26.09375 27.414062 26.078125 27.488281 26.078125 27.558594 C 26.078125 27.625 26.082031 27.675781 26.085938 27.710938 C 26.210938 27.550781 26.339844 27.449219 26.472656 27.410156 C 26.433594 27.238281 26.378906 27.152344 26.308594 27.152344 Z M 26.476562 27.492188 C 26.433594 27.496094 26.363281 27.539062 26.269531 27.613281 C 26.175781 27.6875 26.117188 27.746094 26.097656 27.789062 C 26.140625 27.9375 26.191406 28.019531 26.25 28.035156 C 26.300781 27.992188 26.347656 27.90625 26.402344 27.777344 C 26.453125 27.648438 26.476562 27.554688 26.476562 27.492188 Z M 26.074219 27.816406 C 26.007812 27.925781 25.976562 28.011719 25.976562 28.078125 C 25.976562 28.140625 25.996094 28.171875 26.042969 28.171875 C 26.097656 28.171875 26.164062 28.132812 26.238281 28.050781 C 26.171875 28.042969 26.117188 27.964844 26.074219 27.816406 Z M 28.257812 27.863281 L 28.171875 27.855469 C 28.09375 27.980469 27.996094 28.085938 27.875 28.171875 C 27.753906 28.261719 27.632812 28.308594 27.503906 28.308594 C 27.460938 28.308594 27.429688 28.304688 27.402344 28.296875 L 27.394531 28.355469 C 27.386719 28.390625 27.378906 28.40625 27.363281 28.40625 C 27.351562 28.40625 27.34375 28.390625 27.34375 28.363281 C 27.34375 28.339844 27.347656 28.308594 27.355469 28.273438 C 27.308594 28.246094 27.285156 28.210938 27.285156 28.171875 C 27.285156 28.105469 27.339844 28.042969 27.445312 27.976562 C 27.488281 27.851562 27.53125 27.742188 27.570312 27.648438 C 27.527344 27.691406 27.480469 27.738281 27.433594 27.792969 C 27.421875 27.804688 27.414062 27.808594 27.410156 27.808594 C 27.402344 27.808594 27.398438 27.804688 27.398438 27.796875 C 27.398438 27.765625 27.46875 27.6875 27.601562 27.570312 C 27.84375 26.984375 28.042969 26.546875 28.199219 26.253906 C 28.222656 26.21875 28.257812 26.203125 28.308594 26.203125 C 28.355469 26.203125 28.382812 26.210938 28.382812 26.230469 C 28.382812 26.230469 28.3125 26.363281 28.171875 26.628906 C 28.035156 26.898438 27.902344 27.164062 27.773438 27.429688 C 27.933594 27.316406 28.0625 27.261719 28.15625 27.261719 C 28.253906 27.261719 28.300781 27.320312 28.300781 27.441406 C 28.300781 27.5625 28.265625 27.691406 28.191406 27.820312 C 28.246094 27.824219 28.277344 27.832031 28.277344 27.851562 C 28.277344 27.859375 28.269531 27.863281 28.257812 27.863281 Z M 28.078125 27.816406 C 28.109375 27.734375 28.125 27.640625 28.125 27.53125 C 28.125 27.421875 28.089844 27.367188 28.019531 27.367188 C 27.949219 27.367188 27.855469 27.414062 27.738281 27.503906 C 27.636719 27.71875 27.574219 27.859375 27.542969 27.925781 C 27.699219 27.863281 27.878906 27.828125 28.078125 27.816406 Z M 27.488281 28.25 C 27.605469 28.25 27.71875 28.210938 27.828125 28.132812 C 27.941406 28.054688 28.015625 27.964844 28.0625 27.855469 C 27.863281 27.871094 27.675781 27.925781 27.503906 28.023438 L 27.417969 28.246094 C 27.445312 28.25 27.46875 28.25 27.488281 28.25 Z M 27.40625 28.085938 C 27.371094 28.121094 27.351562 28.148438 27.351562 28.167969 C 27.351562 28.191406 27.355469 28.207031 27.371094 28.21875 C 27.375 28.1875 27.386719 28.144531 27.40625 28.085938 Z M 29.1875 28.074219 L 29.1875 28.078125 C 29.117188 28.171875 29.039062 28.222656 28.957031 28.222656 C 28.871094 28.222656 28.828125 28.148438 28.828125 28 C 28.828125 27.941406 28.835938 27.859375 28.84375 27.75 C 28.769531 27.890625 28.640625 28.03125 28.464844 28.164062 C 28.449219 28.179688 28.414062 28.203125 28.363281 28.242188 C 28.355469 28.25 28.335938 28.253906 28.308594 28.253906 C 28.285156 28.253906 28.273438 28.246094 28.273438 28.234375 C 28.273438 28.164062 28.304688 28.066406 28.371094 27.941406 C 28.4375 27.816406 28.476562 27.726562 28.492188 27.675781 C 28.511719 27.621094 28.519531 27.542969 28.519531 27.445312 C 28.511719 27.476562 28.472656 27.546875 28.410156 27.65625 C 28.3125 27.820312 28.257812 27.902344 28.246094 27.902344 C 28.234375 27.902344 28.226562 27.898438 28.226562 27.890625 L 28.320312 27.738281 C 28.414062 27.570312 28.476562 27.433594 28.503906 27.320312 C 28.519531 27.269531 28.542969 27.242188 28.578125 27.242188 C 28.613281 27.242188 28.632812 27.289062 28.632812 27.378906 C 28.632812 27.46875 28.605469 27.59375 28.554688 27.753906 L 28.425781 28.144531 C 28.597656 28.015625 28.738281 27.863281 28.851562 27.679688 C 28.871094 27.539062 28.898438 27.449219 28.933594 27.40625 C 28.945312 27.390625 28.964844 27.386719 29 27.386719 C 29.03125 27.386719 29.050781 27.394531 29.050781 27.417969 C 29.050781 27.476562 29.03125 27.53125 28.992188 27.582031 C 28.949219 27.730469 28.925781 27.875 28.925781 28.011719 C 28.925781 28.109375 28.957031 28.15625 29.015625 28.15625 C 29.046875 28.15625 29.078125 28.144531 29.109375 28.117188 C 29.140625 28.089844 29.160156 28.074219 29.167969 28.066406 C 29.179688 28.058594 29.183594 28.054688 29.179688 28.054688 C 29.1875 28.054688 29.1875 28.0625 29.1875 28.074219 Z M 30.28125 27.066406 C 30.28125 27.074219 30.273438 27.078125 30.253906 27.085938 C 30.238281 27.089844 30.21875 27.097656 30.199219 27.105469 C 30.105469 27.167969 30.027344 27.339844 29.960938 27.613281 C 29.863281 28.035156 29.808594 28.25 29.804688 28.257812 C 29.726562 28.535156 29.640625 28.75 29.550781 28.910156 C 29.425781 29.128906 29.273438 29.285156 29.097656 29.382812 C 29.015625 29.429688 28.921875 29.449219 28.820312 29.449219 C 28.714844 29.449219 28.605469 29.40625 28.480469 29.316406 C 28.359375 29.222656 28.296875 29.128906 28.296875 29.03125 C 28.296875 29.023438 28.300781 29.019531 28.304688 29.019531 C 28.308594 29.019531 28.316406 29.023438 28.320312 29.035156 C 28.40625 29.242188 28.558594 29.347656 28.78125 29.347656 C 28.894531 29.347656 28.996094 29.320312 29.09375 29.265625 C 29.28125 29.164062 29.429688 29.003906 29.53125 28.785156 C 29.597656 28.636719 29.660156 28.425781 29.71875 28.148438 C 29.765625 27.894531 29.808594 27.707031 29.839844 27.582031 L 29.894531 27.398438 C 29.765625 27.496094 29.613281 27.773438 29.4375 28.234375 C 29.4375 28.238281 29.429688 28.238281 29.417969 28.238281 C 29.40625 28.238281 29.390625 28.230469 29.378906 28.214844 C 29.363281 28.203125 29.355469 28.1875 29.355469 28.171875 L 29.40625 28.050781 C 29.445312 27.9375 29.464844 27.777344 29.464844 27.5625 C 29.464844 27.402344 29.429688 27.320312 29.359375 27.320312 C 29.320312 27.320312 29.273438 27.34375 29.214844 27.394531 L 29.132812 27.472656 C 29.125 27.472656 29.121094 27.46875 29.121094 27.464844 C 29.121094 27.457031 29.125 27.449219 29.128906 27.4375 C 29.15625 27.394531 29.203125 27.351562 29.265625 27.304688 C 29.332031 27.257812 29.386719 27.238281 29.429688 27.238281 C 29.515625 27.238281 29.558594 27.316406 29.558594 27.476562 C 29.558594 27.609375 29.53125 27.75 29.476562 27.910156 C 29.644531 27.609375 29.785156 27.425781 29.902344 27.367188 C 29.933594 27.261719 29.964844 27.1875 30.003906 27.140625 C 30.054688 27.082031 30.128906 27.050781 30.226562 27.050781 C 30.265625 27.050781 30.28125 27.054688 30.28125 27.066406 Z M 30.28125 27.066406 "/>
</g>
</g>
</svg>
